<svg width="15" height="15" viewBox="0 0 15 15" fill="none" xmlns="http://www.w3.org/2000/svg">
<g clip-path="url(#clip0_174_5293)">
<path d="M13.4375 2.5H12.0834V3.33333H13.3334V12.5H1.66669V3.33333H2.91669V2.5H1.56253C1.46512 2.50163 1.369 2.52243 1.27964 2.56121C1.19028 2.6 1.10943 2.656 1.04172 2.72604C0.974006 2.79607 0.920754 2.87876 0.885003 2.96938C0.849252 3.05999 0.831704 3.15677 0.833359 3.25417V12.5792C0.831704 12.6766 0.849252 12.7733 0.885003 12.864C0.920754 12.9546 0.974006 13.0373 1.04172 13.1073C1.10943 13.1773 1.19028 13.2333 1.27964 13.2721C1.369 13.3109 1.46512 13.3317 1.56253 13.3333H13.4375C13.5349 13.3317 13.6311 13.3109 13.7204 13.2721C13.8098 13.2333 13.8906 13.1773 13.9583 13.1073C14.026 13.0373 14.0793 12.9546 14.115 12.864C14.1508 12.7733 14.1683 12.6766 14.1667 12.5792V3.25417C14.1683 3.15677 14.1508 3.05999 14.115 2.96938C14.0793 2.87876 14.026 2.79607 13.9583 2.72604C13.8906 2.656 13.8098 2.6 13.7204 2.56121C13.6311 2.52243 13.5349 2.50163 13.4375 2.5Z" fill="black"/>
<path d="M3.33337 5.83325H4.16671V6.66658H3.33337V5.83325Z" fill="black"/>
<path d="M5.83337 5.83325H6.66671V6.66658H5.83337V5.83325Z" fill="black"/>
<path d="M8.33337 5.83325H9.16671V6.66658H8.33337V5.83325Z" fill="black"/>
<path d="M10.8334 5.83325H11.6667V6.66658H10.8334V5.83325Z" fill="black"/>
<path d="M3.33337 7.91675H4.16671V8.75008H3.33337V7.91675Z" fill="black"/>
<path d="M5.83337 7.91675H6.66671V8.75008H5.83337V7.91675Z" fill="black"/>
<path d="M8.33337 7.91675H9.16671V8.75008H8.33337V7.91675Z" fill="black"/>
<path d="M10.8334 7.91675H11.6667V8.75008H10.8334V7.91675Z" fill="black"/>
<path d="M3.33337 10H4.16671V10.8333H3.33337V10Z" fill="black"/>
<path d="M5.83337 10H6.66671V10.8333H5.83337V10Z" fill="black"/>
<path d="M8.33337 10H9.16671V10.8333H8.33337V10Z" fill="black"/>
<path d="M10.8334 10H11.6667V10.8333H10.8334V10Z" fill="black"/>
<path d="M4.16667 4.16658C4.27717 4.16658 4.38315 4.12269 4.46129 4.04455C4.53943 3.96641 4.58333 3.86043 4.58333 3.74992V1.24992C4.58333 1.13941 4.53943 1.03343 4.46129 0.955291C4.38315 0.877151 4.27717 0.833252 4.16667 0.833252C4.05616 0.833252 3.95018 0.877151 3.87204 0.955291C3.7939 1.03343 3.75 1.13941 3.75 1.24992V3.74992C3.75 3.86043 3.7939 3.96641 3.87204 4.04455C3.95018 4.12269 4.05616 4.16658 4.16667 4.16658Z" fill="black"/>
<path d="M10.8333 4.16658C10.9438 4.16658 11.0498 4.12269 11.1279 4.04455C11.2061 3.96641 11.25 3.86043 11.25 3.74992V1.24992C11.25 1.13941 11.2061 1.03343 11.1279 0.955291C11.0498 0.877151 10.9438 0.833252 10.8333 0.833252C10.7228 0.833252 10.6168 0.877151 10.5387 0.955291C10.4605 1.03343 10.4166 1.13941 10.4166 1.24992V3.74992C10.4166 3.86043 10.4605 3.96641 10.5387 4.04455C10.6168 4.12269 10.7228 4.16658 10.8333 4.16658Z" fill="black"/>
<path d="M5.41663 2.5H9.58329V3.33333H5.41663V2.5Z" fill="black"/>
</g>
<defs>
<clipPath id="clip0_174_5293">
<rect width="15" height="15" fill="white"/>
</clipPath>
</defs>
</svg>
