<svg width="22" height="16" viewBox="0 0 22 16" fill="none" xmlns="http://www.w3.org/2000/svg">
<path d="M21.8844 6.25C21.8865 6.22769 21.8833 6.20519 21.875 6.18438V6.16562C21.8731 6.14569 21.8667 6.12645 21.8562 6.10938L20.5437 2.8375C20.4613 2.62836 20.3181 2.44871 20.1327 2.32172C19.9472 2.19472 19.7279 2.1262 19.5031 2.125H15.8844V1C15.8844 0.900544 15.8449 0.805161 15.7745 0.734835C15.7042 0.664509 15.6088 0.625 15.5094 0.625H1.25937C0.961 0.625 0.674852 0.743526 0.463874 0.954505C0.252895 1.16548 0.134369 1.45163 0.134369 1.75V12.25C0.134369 12.5484 0.252895 12.8345 0.463874 13.0455C0.674852 13.2565 0.961 13.375 1.25937 13.375H2.78749C2.87944 13.998 3.19232 14.5673 3.66905 14.9788C4.14578 15.3903 4.75458 15.6168 5.38437 15.6168C6.01416 15.6168 6.62296 15.3903 7.09969 14.9788C7.57642 14.5673 7.8893 13.998 7.98124 13.375H14.0375C14.1294 13.998 14.4423 14.5673 14.919 14.9788C15.3958 15.3903 16.0046 15.6168 16.6344 15.6168C17.2642 15.6168 17.873 15.3903 18.3497 14.9788C18.8264 14.5673 19.1393 13.998 19.2312 13.375H20.7594C21.0577 13.375 21.3439 13.2565 21.5549 13.0455C21.7658 12.8345 21.8844 12.5484 21.8844 12.25V6.25ZM19.5031 2.875C19.5777 2.87515 19.6505 2.89753 19.7123 2.93928C19.7741 2.98103 19.822 3.04025 19.85 3.10938L20.9562 5.875H15.8844V2.875H19.5031ZM1.25937 1.375H15.1344V8.125H0.884369V1.75C0.884369 1.65054 0.923877 1.55516 0.994204 1.48483C1.06453 1.41451 1.15991 1.375 1.25937 1.375ZM0.884369 12.25V8.875H15.1344V10.8438C14.84 11.0504 14.5909 11.315 14.4023 11.6213C14.2137 11.9275 14.0895 12.2691 14.0375 12.625H7.98124C7.8893 12.002 7.57642 11.4327 7.09969 11.0212C6.62296 10.6097 6.01416 10.3832 5.38437 10.3832C4.75458 10.3832 4.14578 10.6097 3.66905 11.0212C3.19232 11.4327 2.87944 12.002 2.78749 12.625H1.25937C1.15991 12.625 1.06453 12.5855 0.994204 12.5152C0.923877 12.4448 0.884369 12.3495 0.884369 12.25ZM5.38437 14.875C5.01353 14.875 4.65102 14.765 4.34267 14.559C4.03433 14.353 3.79401 14.0601 3.65209 13.7175C3.51018 13.3749 3.47305 12.9979 3.5454 12.6342C3.61774 12.2705 3.79632 11.9364 4.05854 11.6742C4.32077 11.412 4.65486 11.2334 5.01857 11.161C5.38229 11.0887 5.75929 11.1258 6.1019 11.2677C6.44451 11.4096 6.73735 11.65 6.94337 11.9583C7.1494 12.2666 7.25937 12.6292 7.25937 13C7.2569 13.4965 7.05857 13.972 6.70747 14.3231C6.35637 14.6742 5.88089 14.8725 5.38437 14.875ZM16.6344 14.875C16.2635 14.875 15.901 14.765 15.5927 14.559C15.2843 14.353 15.044 14.0601 14.9021 13.7175C14.7602 13.3749 14.723 12.9979 14.7954 12.6342C14.8677 12.2705 15.0463 11.9364 15.3085 11.6742C15.5708 11.412 15.9049 11.2334 16.2686 11.161C16.6323 11.0887 17.0093 11.1258 17.3519 11.2677C17.6945 11.4096 17.9873 11.65 18.1934 11.9583C18.3994 12.2666 18.5094 12.6292 18.5094 13C18.5069 13.4965 18.3086 13.972 17.9575 14.3231C17.6064 14.6742 17.1309 14.8725 16.6344 14.875ZM21.1344 12.25C21.1344 12.3495 21.0949 12.4448 21.0245 12.5152C20.9542 12.5855 20.8588 12.625 20.7594 12.625H19.2312C19.143 11.9996 18.8314 11.4273 18.3541 11.0138C17.8768 10.6002 17.2659 10.3733 16.6344 10.375C16.3801 10.3736 16.1271 10.4115 15.8844 10.4875V6.625H21.1344V12.25Z" fill="black"/>
</svg>
