<svg width="15" height="15" viewBox="0 0 15 15" fill="none" xmlns="http://www.w3.org/2000/svg">
<path d="M8.72058 1.17744C8.59754 0.962354 8.41984 0.783601 8.20549 0.65928C7.99114 0.534958 7.74775 0.469482 7.49996 0.469482C7.25216 0.469482 7.00877 0.534958 6.79442 0.65928C6.58007 0.783601 6.40238 0.962354 6.27933 1.17744L4.68183 3.97119C4.62004 4.07922 4.6037 4.20738 4.63641 4.32746C4.66911 4.44754 4.74817 4.54971 4.85621 4.6115C4.96424 4.67329 5.0924 4.68963 5.21248 4.65693C5.33256 4.62423 5.43473 4.54516 5.49652 4.43713L7.09308 1.64244C7.1341 1.57074 7.19333 1.51116 7.26478 1.46972C7.33623 1.42828 7.41736 1.40645 7.49996 1.40645C7.58256 1.40645 7.66369 1.42828 7.73514 1.46972C7.80659 1.51116 7.86582 1.57074 7.90683 1.64244L10.2881 5.80869L9.11058 5.49275C8.99049 5.46043 8.86247 5.47714 8.7547 5.5392C8.64692 5.60126 8.56822 5.7036 8.53589 5.82369C8.50357 5.94378 8.52028 6.0718 8.58234 6.17957C8.6444 6.28735 8.74674 6.36605 8.86683 6.39838L11.1309 7.00494C11.1904 7.02097 11.2524 7.02512 11.3135 7.01716C11.3745 7.0092 11.4334 6.98929 11.4868 6.95856C11.5402 6.92782 11.587 6.88687 11.6245 6.83805C11.6621 6.78922 11.6896 6.73348 11.7056 6.674L12.3121 4.40994C12.3281 4.35047 12.3322 4.28845 12.3241 4.22741C12.3161 4.16637 12.2961 4.10751 12.2654 4.05419C12.2346 4.00087 12.1936 3.95413 12.1448 3.91665C12.0959 3.87916 12.0402 3.85166 11.9807 3.83572C11.9213 3.81978 11.8593 3.8157 11.7982 3.82373C11.7372 3.83175 11.6783 3.85172 11.625 3.8825C11.5717 3.91327 11.5249 3.95425 11.4874 4.00308C11.45 4.05192 11.4225 4.10766 11.4065 4.16713L11.0943 5.3315L8.72058 1.17744ZM2.78714 7.28713L1.61058 7.60306C1.49049 7.63539 1.36247 7.61868 1.2547 7.55662C1.14692 7.49455 1.06822 7.39222 1.03589 7.27213C1.00357 7.15203 1.02028 7.02402 1.08234 6.91624C1.1444 6.80847 1.24674 6.72976 1.36683 6.69744L3.63183 6.09088C3.7518 6.05879 3.87959 6.07561 3.98716 6.13766C4.09474 6.19971 4.17329 6.3019 4.20558 6.42181L4.81214 8.68588C4.84434 8.80597 4.82752 8.93394 4.76537 9.04162C4.70322 9.14931 4.60083 9.2279 4.48074 9.2601C4.36064 9.29229 4.23268 9.27547 4.12499 9.21332C4.01731 9.15117 3.93872 9.04878 3.90652 8.92869L3.59433 7.76431L1.20839 11.9399C1.16768 12.0112 1.1464 12.0919 1.14667 12.174C1.14695 12.2561 1.16878 12.3367 1.20997 12.4077C1.25117 12.4787 1.31029 12.5376 1.38142 12.5786C1.45254 12.6196 1.53318 12.6412 1.61527 12.6412H4.68746C4.81178 12.6412 4.93101 12.6906 5.01891 12.7785C5.10682 12.8664 5.15621 12.9856 5.15621 13.1099C5.15621 13.2343 5.10682 13.3535 5.01891 13.4414C4.93101 13.5293 4.81178 13.5787 4.68746 13.5787H1.61527C1.36901 13.5786 1.12709 13.5139 0.913708 13.3909C0.700328 13.268 0.522973 13.0912 0.399386 12.8782C0.275798 12.6652 0.210313 12.4234 0.209481 12.1772C0.208649 11.9309 0.272499 11.6888 0.394644 11.4749L2.78714 7.28713ZM12.9965 8.65869C12.9668 8.60371 12.9264 8.55523 12.8777 8.5161C12.829 8.47697 12.7729 8.44797 12.7128 8.43082C12.6527 8.41366 12.5898 8.4087 12.5278 8.41621C12.4657 8.42372 12.4058 8.44356 12.3516 8.47457C12.2973 8.50557 12.2498 8.54711 12.2118 8.59675C12.1739 8.64638 12.1462 8.7031 12.1305 8.76358C12.1148 8.82406 12.1113 8.88707 12.1203 8.94892C12.1292 9.01076 12.1505 9.07018 12.1828 9.12369L13.7915 11.9399C13.8322 12.0112 13.8535 12.0919 13.8532 12.174C13.853 12.2561 13.8311 12.3367 13.7899 12.4077C13.7487 12.4787 13.6896 12.5376 13.6185 12.5786C13.5474 12.6196 13.4667 12.6412 13.3846 12.6412H8.16277L8.76933 12.0356C8.85723 11.9475 8.90656 11.8282 8.90647 11.7038C8.90638 11.5794 8.85688 11.4602 8.76886 11.3723C8.72528 11.3288 8.67355 11.2943 8.61663 11.2707C8.55971 11.2472 8.49872 11.2351 8.43713 11.2351C8.31274 11.2352 8.19348 11.2847 8.10558 11.3728L6.69933 12.779C6.6556 12.8224 6.62088 12.874 6.59719 12.9309C6.5735 12.9878 6.56131 13.0488 6.56131 13.1104C6.56131 13.172 6.5735 13.233 6.59719 13.2899C6.62088 13.3468 6.6556 13.3984 6.69933 13.4418L8.10558 14.8481C8.19348 14.9361 8.31274 14.9856 8.43713 14.9857C8.49872 14.9857 8.55971 14.9736 8.61663 14.9501C8.67355 14.9266 8.72528 14.8921 8.76886 14.8485C8.81245 14.805 8.84703 14.7533 8.87064 14.6964C8.89425 14.6396 8.90642 14.5786 8.90647 14.517C8.90651 14.4554 8.89442 14.3944 8.87089 14.3375C8.84736 14.2806 8.81285 14.2288 8.76933 14.1853L8.16277 13.5787H13.3846C13.6309 13.5786 13.8728 13.5139 14.0862 13.3909C14.2996 13.268 14.4769 13.0912 14.6005 12.8782C14.7241 12.6652 14.7896 12.4234 14.7904 12.1772C14.7913 11.9309 14.7274 11.6888 14.6053 11.4749L12.9965 8.65869Z" fill="black"/>
</svg>
