<svg width="20" height="19" viewBox="0 0 20 19" fill="none" xmlns="http://www.w3.org/2000/svg">
<path d="M5.83333 7.13292L5.84167 7.12421M9.16667 7.13292L9.175 7.12421M5.83333 10.2996L5.84167 10.2909M9.16667 10.2996L9.175 10.2909M5.83333 13.4663L5.84167 13.4575M9.16667 13.4663L9.175 13.4575M12.5 16.625H3C2.86739 16.625 2.74021 16.575 2.64645 16.4859C2.55268 16.3968 2.5 16.276 2.5 16.15V4.43333C2.5 4.30736 2.55268 4.18654 2.64645 4.09746C2.74021 4.00838 2.86739 3.95833 3 3.95833H7.5V2.85C7.5 2.72402 7.55268 2.6032 7.64645 2.51412C7.74021 2.42504 7.86739 2.375 8 2.375H12C12.1326 2.375 12.2598 2.42504 12.3536 2.51412C12.4473 2.6032 12.5 2.72402 12.5 2.85V7.125M12.5 16.625H17C17.1326 16.625 17.2598 16.575 17.3536 16.4859C17.4473 16.3968 17.5 16.276 17.5 16.15V7.6C17.5 7.47402 17.4473 7.3532 17.3536 7.26412C17.2598 7.17504 17.1326 7.125 17 7.125H12.5M12.5 16.625V13.4583M12.5 7.125V10.2917M12.5 13.4583V10.2917M12.5 13.4583H14.1667M12.5 10.2917H14.1667" stroke="#B1B1B1" stroke-width="1.5" stroke-linecap="round" stroke-linejoin="round"/>
</svg>
