<svg width="22" height="22" viewBox="0 0 22 22" fill="none" xmlns="http://www.w3.org/2000/svg">
<path d="M18.3339 7.81786L19.2814 6.87029C19.409 6.74434 19.5704 6.65813 19.746 6.62215C19.9216 6.58616 20.1038 6.60194 20.2706 6.66757L21.4256 7.128C21.5943 7.19671 21.7388 7.31382 21.8411 7.46455C21.9433 7.61528 21.9986 7.79289 22 7.975V10.0901C21.9979 10.3334 21.8993 10.5659 21.7259 10.7365C21.5525 10.9071 21.3185 11.0019 21.0752 11L21.0359 10.9984C12.9462 10.4956 11.3143 3.64257 11.0055 1.01986C10.9922 0.900061 11.0026 0.778813 11.0361 0.663038C11.0697 0.547264 11.1257 0.43923 11.201 0.345108C11.2763 0.250986 11.3694 0.172619 11.475 0.114483C11.5806 0.0563476 11.6966 0.0195818 11.8164 0.00628575C11.8518 0.00208069 11.8875 -1.81491e-05 11.9232 1.18214e-07H13.9661C14.1483 0.000656841 14.3261 0.0557663 14.4768 0.158251C14.6274 0.260735 14.744 0.405915 14.8115 0.575143L15.2727 1.73014C15.3405 1.89643 15.3578 2.07902 15.3225 2.25509C15.2871 2.43117 15.2007 2.59292 15.0739 2.72014L14.1264 3.66771C14.1264 3.66771 14.6716 7.36057 18.3339 7.81786ZM11 22H9.42857V18.0714C9.42795 17.4465 9.17941 16.8473 8.73749 16.4054C8.29558 15.9635 7.69639 15.7149 7.07143 15.7143H3.92857C3.30361 15.7149 2.70442 15.9635 2.26251 16.4054C1.82059 16.8473 1.57205 17.4465 1.57143 18.0714V22H0V18.0714C0.0012476 17.0299 0.41555 16.0314 1.15203 15.2949C1.88851 14.5584 2.88703 14.1441 3.92857 14.1429H7.07143C8.11297 14.1441 9.11149 14.5584 9.84797 15.2949C10.5844 16.0314 10.9988 17.0299 11 18.0714V22ZM5.5 6.28571C5.9662 6.28571 6.42193 6.42396 6.80956 6.68296C7.19719 6.94197 7.49931 7.31011 7.67772 7.74082C7.85612 8.17153 7.9028 8.64547 7.81185 9.10271C7.7209 9.55995 7.4964 9.97996 7.16675 10.3096C6.8371 10.6393 6.4171 10.8638 5.95986 10.9547C5.50261 11.0457 5.02867 10.999 4.59796 10.8206C4.16725 10.6422 3.79911 10.34 3.54011 9.95242C3.2811 9.56479 3.14286 9.10906 3.14286 8.64286C3.14286 8.0177 3.3912 7.41816 3.83325 6.97611C4.2753 6.53405 4.87485 6.28571 5.5 6.28571ZM5.5 4.71429C4.723 4.71429 3.96345 4.94469 3.3174 5.37637C2.67135 5.80805 2.16782 6.42161 1.87047 7.13946C1.57313 7.85731 1.49533 8.64721 1.64691 9.40928C1.7985 10.1714 2.17266 10.8714 2.72208 11.4208C3.2715 11.9702 3.97151 12.3444 4.73357 12.4959C5.49564 12.6475 6.28555 12.5697 7.0034 12.2724C7.72125 11.975 8.33481 11.4715 8.76649 10.8255C9.19816 10.1794 9.42857 9.41986 9.42857 8.64286C9.42857 8.12695 9.32696 7.61609 9.12953 7.13946C8.9321 6.66282 8.64272 6.22974 8.27792 5.86494C7.91312 5.50014 7.48003 5.21076 7.0034 5.01333C6.52676 4.8159 6.01591 4.71429 5.5 4.71429Z" fill="#59AB44"/>
</svg>
