<svg width="27" height="27" viewBox="0 0 27 27" fill="none" xmlns="http://www.w3.org/2000/svg">
<path d="M13.0691 0C10.4843 0 7.95751 0.768954 5.8083 2.20962C3.6591 3.65029 1.984 5.69797 0.994832 8.09372C0.0056626 10.4895 -0.253149 13.1257 0.251125 15.669C0.755399 18.2123 2.00011 20.5485 3.82786 22.3821C5.6556 24.2157 7.9843 25.4644 10.5195 25.9703C13.0546 26.4762 15.6824 26.2166 18.0704 25.2242C20.4585 24.2319 22.4996 22.5514 23.9357 20.3953C25.3717 18.2392 26.1382 15.7043 26.1382 13.1111C26.1382 9.63384 24.7613 6.29897 22.3104 3.84016C19.8594 1.38135 16.5353 0 13.0691 0ZM13.0691 24.5834C10.8074 24.5834 8.59646 23.9105 6.71591 22.6499C4.83535 21.3894 3.36964 19.5976 2.50412 17.5014C1.63859 15.4051 1.41213 13.0984 1.85337 10.873C2.29461 8.64761 3.38374 6.60345 4.98301 4.99903C6.58229 3.39461 8.6199 2.30199 10.8382 1.85933C13.0564 1.41667 15.3557 1.64386 17.4453 2.51216C19.5348 3.38047 21.3208 4.85089 22.5774 6.73749C23.8339 8.62409 24.5046 10.8421 24.5046 13.1111C24.5046 16.1538 23.2998 19.0718 21.1552 21.2232C19.0106 23.3747 16.102 24.5834 13.0691 24.5834Z" fill="#59AB44"/>
<path d="M21.2373 8.27638C21.0843 8.12375 20.8773 8.03809 20.6615 8.03809C20.4457 8.03809 20.2387 8.12375 20.0856 8.27638L11.0189 17.3312L6.11802 12.4146C5.96854 12.2527 5.76107 12.157 5.54125 12.1485C5.32144 12.14 5.10728 12.2195 4.94588 12.3695C4.78449 12.5195 4.68909 12.7276 4.68066 12.9481C4.67224 13.1686 4.75148 13.3835 4.90096 13.5454L11.0189 19.6667L21.2373 9.43999C21.3139 9.36381 21.3747 9.27318 21.4161 9.17332C21.4576 9.07346 21.479 8.96636 21.479 8.85818C21.479 8.75001 21.4576 8.6429 21.4161 8.54304C21.3747 8.44318 21.3139 8.35255 21.2373 8.27638Z" fill="#59AB44"/>
</svg>
