<svg width="14" height="14" viewBox="0 0 14 14" fill="none" xmlns="http://www.w3.org/2000/svg">
<path d="M13.2089 1.13306C12.9822 0.884539 12.7081 0.683888 12.4027 0.542924C12.0973 0.401961 11.7668 0.323535 11.4306 0.312267C11.0945 0.300998 10.7594 0.357115 10.4453 0.477311C10.1311 0.597507 9.84418 0.779352 9.60138 1.01214L1.49287 8.78971C1.20928 9.06167 1.00915 9.40889 0.915978 9.7906L0.103216 13.1218C0.0863778 13.191 0.0872808 13.2634 0.105841 13.3322C0.124401 13.4011 0.160018 13.4641 0.209397 13.5155C0.258776 13.5669 0.32032 13.605 0.388335 13.6263C0.45635 13.6476 0.528638 13.6514 0.598509 13.6373L3.94025 12.9669C4.33813 12.887 4.70497 12.6953 4.99773 12.4143L13.0915 4.6508C13.566 4.19554 13.8438 3.57296 13.8657 2.9158C13.8876 2.25865 13.6519 1.61893 13.2089 1.13306ZM10.1879 1.62447C10.51 1.32766 10.9357 1.16896 11.3735 1.18243C11.8113 1.19591 12.2264 1.38048 12.5297 1.69655C12.833 2.01261 13.0002 2.43496 12.9956 2.87297C12.991 3.31097 12.8149 3.72971 12.505 4.03931L11.9247 4.59598L9.60754 2.18114L10.1879 1.62447ZM8.99606 2.76767L11.3131 5.18336L4.41118 11.8036C4.2346 11.9728 4.01343 12.0882 3.77362 12.1362L1.0839 12.6752L1.73992 9.9917C1.79454 9.76637 1.91266 9.56144 2.08025 9.40122L8.99606 2.76767Z" fill="white"/>
</svg>
