<svg width="15" height="15" viewBox="0 0 15 15" fill="none" xmlns="http://www.w3.org/2000/svg">
<path d="M13.8581 1.78247C13.6315 1.53395 13.3574 1.3333 13.052 1.19234C12.7466 1.05137 12.416 0.972949 12.0799 0.961681C11.7437 0.950412 11.4087 1.00653 11.0945 1.12672C10.7803 1.24692 10.4934 1.42877 10.2506 1.66155L2.1421 9.43912C1.85851 9.71108 1.65838 10.0583 1.56521 10.44L0.752447 13.7712C0.735609 13.8405 0.736512 13.9128 0.755072 13.9817C0.773632 14.0505 0.809249 14.1135 0.858628 14.1649C0.908007 14.2163 0.969551 14.2544 1.03757 14.2757C1.10558 14.297 1.17787 14.3008 1.24774 14.2867L4.58948 13.6163C4.98736 13.5364 5.3542 13.3447 5.64697 13.0637L13.7408 5.30022C14.2152 4.84496 14.493 4.22237 14.5149 3.56521C14.5368 2.90806 14.3012 2.26834 13.8581 1.78247ZM10.8371 2.27389C11.1593 1.97707 11.5849 1.81837 12.0227 1.83185C12.4606 1.84532 12.8756 2.0299 13.1789 2.34596C13.4822 2.66202 13.6495 3.08438 13.6449 3.52238C13.6402 3.96039 13.4641 4.37912 13.1542 4.68873L12.5739 5.2454L10.2568 2.83055L10.8371 2.27389ZM9.64529 3.41709L11.9624 5.83278L5.06042 12.453C4.88383 12.6222 4.66267 12.7376 4.42285 12.7856L1.73313 13.3246L2.38915 10.6411C2.44377 10.4158 2.56189 10.2108 2.72948 10.0506L9.64529 3.41709Z" fill="#81A2E3"/>
</svg>
