<svg width="18" height="15" viewBox="0 0 18 15" fill="none" xmlns="http://www.w3.org/2000/svg">
<path d="M7.68802 9.54995C7.55334 9.54995 7.41866 9.5062 7.31234 9.41245C6.73109 8.89995 6.41211 8.2187 6.41211 7.49995C6.41211 6.0062 7.78726 4.7937 9.48139 4.7937C10.2966 4.7937 11.0692 5.07495 11.6504 5.58745C11.7497 5.67495 11.8064 5.7937 11.8064 5.9187C11.8064 6.0437 11.7497 6.16245 11.6504 6.24995L8.06371 9.41245C7.95738 9.5062 7.8227 9.54995 7.68802 9.54995ZM9.48139 5.7312C8.3756 5.7312 7.47537 6.52495 7.47537 7.49995C7.47537 7.81245 7.56752 8.11245 7.73764 8.37495L10.4738 5.96245C10.1761 5.81245 9.83581 5.7312 9.48139 5.7312Z" fill="#808080"/>
<path d="M4.94473 11.5688C4.82423 11.5688 4.69664 11.5313 4.5974 11.4563C3.83894 10.8875 3.15845 10.1875 2.5772 9.37505C1.82583 8.3438 1.82583 6.66255 2.5772 5.62505C4.30677 3.23755 6.82316 1.86255 9.48132 1.86255C11.0408 1.86255 12.579 2.33755 13.9258 3.2313C14.1597 3.38755 14.2093 3.6813 14.0321 3.88755C13.8549 4.0938 13.5217 4.13755 13.2878 3.9813C12.1253 3.2063 10.8068 2.80005 9.48132 2.80005C7.19176 2.80005 5.00144 4.01255 3.47034 6.1313C2.93871 6.86255 2.93871 8.13755 3.47034 8.8688C4.00197 9.60005 4.61158 10.2313 5.28497 10.7438C5.50472 10.9126 5.53307 11.2063 5.34168 11.4063C5.24244 11.5126 5.09359 11.5688 4.94473 11.5688Z" fill="#808080"/>
<path d="M9.48152 13.1374C8.53876 13.1374 7.61726 12.9687 6.73121 12.6374C6.46185 12.5374 6.33426 12.2624 6.44768 12.0249C6.56109 11.7874 6.87298 11.6749 7.14234 11.7749C7.89371 12.0562 8.68053 12.1999 9.47443 12.1999C11.764 12.1999 13.9543 10.9874 15.4854 8.86869C16.017 8.13744 16.017 6.86244 15.4854 6.13119C15.2657 5.82494 15.0247 5.53119 14.7695 5.25619C14.5852 5.05619 14.6206 4.76244 14.8474 4.59369C15.0743 4.43119 15.4074 4.45619 15.5988 4.66244C15.8753 4.96244 16.1446 5.28744 16.3856 5.62494C17.137 6.65619 17.137 8.33744 16.3856 9.37494C14.6561 11.7624 12.1397 13.1374 9.48152 13.1374Z" fill="#808080"/>
<path d="M9.97102 10.1687C9.72293 10.1687 9.4961 10.0125 9.44648 9.78747C9.38977 9.53122 9.58116 9.28747 9.87178 9.24372C10.6515 9.11872 11.3036 8.54372 11.4454 7.85622C11.5021 7.59997 11.7786 7.43747 12.0692 7.48122C12.3598 7.53122 12.5512 7.77497 12.4945 8.03122C12.2677 9.11247 11.2895 9.96872 10.0703 10.1687C10.0348 10.1625 10.0065 10.1687 9.97102 10.1687Z" fill="#808080"/>
<path d="M2.39314 14.2187C2.25846 14.2187 2.12378 14.175 2.01745 14.0812C1.81189 13.9 1.81189 13.6 2.01745 13.4187L7.3125 8.74995C7.51806 8.5687 7.85831 8.5687 8.06387 8.74995C8.26944 8.9312 8.26944 9.2312 8.06387 9.41245L2.76883 14.0812C2.6625 14.175 2.52782 14.2187 2.39314 14.2187Z" fill="#808080"/>
<path d="M11.275 6.3874C11.1403 6.3874 11.0056 6.34365 10.8993 6.2499C10.6937 6.06865 10.6937 5.76865 10.8993 5.5874L16.1943 0.918652C16.3999 0.737402 16.7401 0.737402 16.9457 0.918652C17.1513 1.0999 17.1513 1.3999 16.9457 1.58115L11.6507 6.2499C11.5443 6.34365 11.4097 6.3874 11.275 6.3874Z" fill="#808080"/>
</svg>
