<svg width="92" height="92" viewBox="0 0 92 92" fill="none" xmlns="http://www.w3.org/2000/svg">
<circle cx="46" cy="46" r="46" fill="#EDF9F0"/>
<path d="M57.5439 64.5848H34.6422C33.6298 64.5848 32.659 64.1826 31.9432 63.4668C31.2273 62.751 30.8252 61.7801 30.8252 60.7678V46.7723C30.8252 45.76 31.2273 44.7891 31.9432 44.0733C32.659 43.3575 33.6298 42.9553 34.6422 42.9553H57.5439C58.5563 42.9553 59.5271 43.3575 60.2429 44.0733C60.9588 44.7891 61.3609 45.76 61.3609 46.7723V60.7678C61.3609 61.7801 60.9588 62.751 60.2429 63.4668C59.5271 64.1826 58.5563 64.5848 57.5439 64.5848ZM34.6422 45.5C34.3047 45.5 33.9811 45.634 33.7425 45.8726C33.5039 46.1112 33.3698 46.4348 33.3698 46.7723V60.7678C33.3698 61.1053 33.5039 61.4289 33.7425 61.6675C33.9811 61.9061 34.3047 62.0401 34.6422 62.0401H57.5439C57.8814 62.0401 58.205 61.9061 58.4436 61.6675C58.6822 61.4289 58.8163 61.1053 58.8163 60.7678V46.7723C58.8163 46.4348 58.6822 46.1112 58.4436 45.8726C58.205 45.634 57.8814 45.5 57.5439 45.5H34.6422Z" fill="#59AB44"/>
<path d="M56.2716 45.4999H35.9144C35.577 45.4999 35.2534 45.3658 35.0147 45.1272C34.7761 44.8886 34.6421 44.565 34.6421 44.2275V36.5936C34.6421 33.8941 35.7145 31.3051 37.6233 29.3963C39.5322 27.4874 42.1211 26.415 44.8207 26.415H47.3653C50.0648 26.415 52.6538 27.4874 54.5626 29.3963C56.4715 31.3051 57.5439 33.8941 57.5439 36.5936V44.2275C57.5439 44.565 57.4098 44.8886 57.1712 45.1272C56.9326 45.3658 56.609 45.4999 56.2716 45.4999ZM37.1867 42.9552H54.9992V36.5936C54.9992 34.569 54.1949 32.6272 52.7633 31.1956C51.3317 29.764 49.3899 28.9597 47.3653 28.9597H44.8207C42.796 28.9597 40.8543 29.764 39.4227 31.1956C37.991 32.6272 37.1867 34.569 37.1867 36.5936V42.9552Z" fill="#59AB44"/>
<path d="M46.093 54.4062C45.5897 54.4062 45.0977 54.2569 44.6793 53.9773C44.2608 53.6977 43.9346 53.3003 43.742 52.8353C43.5494 52.3704 43.499 51.8587 43.5972 51.3651C43.6954 50.8715 43.9378 50.4181 44.2937 50.0622C44.6495 49.7063 45.1029 49.464 45.5965 49.3658C46.0902 49.2676 46.6018 49.318 47.0668 49.5106C47.5318 49.7032 47.9292 50.0293 48.2088 50.4478C48.4884 50.8663 48.6376 51.3583 48.6376 51.8615C48.6376 52.5364 48.3695 53.1837 47.8923 53.6609C47.4151 54.1381 46.7679 54.4062 46.093 54.4062Z" fill="#59AB44"/>
<path d="M47.3654 53.1338H44.8208V58.2231H47.3654V53.1338Z" fill="#59AB44"/>
</svg>
