<svg width="24" height="18" viewBox="0 0 24 18" fill="none" xmlns="http://www.w3.org/2000/svg">
<path d="M10.5 12.7031C10.5 13.1328 10.377 13.498 10.1309 13.7988C9.88477 14.0996 9.58984 14.25 9.24609 14.25H4.25391C3.91016 14.25 3.61523 14.0996 3.36914 13.7988C3.12305 13.498 3 13.1328 3 12.7031C3 12.2812 3.0293 11.8887 3.08789 11.5254C3.14648 11.1621 3.24219 10.8105 3.375 10.4707C3.50781 10.1309 3.70703 9.86328 3.97266 9.66797C4.23828 9.47266 4.55469 9.375 4.92188 9.375C5.42188 9.875 6.03125 10.125 6.75 10.125C7.46875 10.125 8.07812 9.875 8.57812 9.375C8.94531 9.375 9.26172 9.47266 9.52734 9.66797C9.79297 9.86328 9.99219 10.1309 10.125 10.4707C10.2578 10.8105 10.3535 11.1621 10.4121 11.5254C10.4707 11.8887 10.5 12.2812 10.5 12.7031ZM9 7.5C9 8.125 8.78125 8.65625 8.34375 9.09375C7.90625 9.53125 7.375 9.75 6.75 9.75C6.125 9.75 5.59375 9.53125 5.15625 9.09375C4.71875 8.65625 4.5 8.125 4.5 7.5C4.5 6.875 4.71875 6.34375 5.15625 5.90625C5.59375 5.46875 6.125 5.25 6.75 5.25C7.375 5.25 7.90625 5.46875 8.34375 5.90625C8.78125 6.34375 9 6.875 9 7.5ZM21 12.375V13.125C21 13.2344 20.9648 13.3242 20.8945 13.3945C20.8242 13.4648 20.7344 13.5 20.625 13.5H12.375C12.2656 13.5 12.1758 13.4648 12.1055 13.3945C12.0352 13.3242 12 13.2344 12 13.125V12.375C12 12.2656 12.0352 12.1758 12.1055 12.1055C12.1758 12.0352 12.2656 12 12.375 12H20.625C20.7344 12 20.8242 12.0352 20.8945 12.1055C20.9648 12.1758 21 12.2656 21 12.375ZM16.5 9.375V10.125C16.5 10.2344 16.4648 10.3242 16.3945 10.3945C16.3242 10.4648 16.2344 10.5 16.125 10.5H12.375C12.2656 10.5 12.1758 10.4648 12.1055 10.3945C12.0352 10.3242 12 10.2344 12 10.125V9.375C12 9.26562 12.0352 9.17578 12.1055 9.10547C12.1758 9.03516 12.2656 9 12.375 9H16.125C16.2344 9 16.3242 9.03516 16.3945 9.10547C16.4648 9.17578 16.5 9.26562 16.5 9.375ZM21 9.375V10.125C21 10.2344 20.9648 10.3242 20.8945 10.3945C20.8242 10.4648 20.7344 10.5 20.625 10.5H18.375C18.2656 10.5 18.1758 10.4648 18.1055 10.3945C18.0352 10.3242 18 10.2344 18 10.125V9.375C18 9.26562 18.0352 9.17578 18.1055 9.10547C18.1758 9.03516 18.2656 9 18.375 9H20.625C20.7344 9 20.8242 9.03516 20.8945 9.10547C20.9648 9.17578 21 9.26562 21 9.375ZM21 6.375V7.125C21 7.23438 20.9648 7.32422 20.8945 7.39453C20.8242 7.46484 20.7344 7.5 20.625 7.5H12.375C12.2656 7.5 12.1758 7.46484 12.1055 7.39453C12.0352 7.32422 12 7.23438 12 7.125V6.375C12 6.26562 12.0352 6.17578 12.1055 6.10547C12.1758 6.03516 12.2656 6 12.375 6H20.625C20.7344 6 20.8242 6.03516 20.8945 6.10547C20.9648 6.17578 21 6.26562 21 6.375ZM22.5 16.125V3H1.5V16.125C1.5 16.2266 1.53711 16.3145 1.61133 16.3887C1.68555 16.4629 1.77344 16.5 1.875 16.5H22.125C22.2266 16.5 22.3145 16.4629 22.3887 16.3887C22.4629 16.3145 22.5 16.2266 22.5 16.125ZM24 1.875V16.125C24 16.6406 23.8164 17.082 23.4492 17.4492C23.082 17.8164 22.6406 18 22.125 18H1.875C1.35938 18 0.917969 17.8164 0.550781 17.4492C0.183594 17.082 0 16.6406 0 16.125V1.875C0 1.35938 0.183594 0.917969 0.550781 0.550781C0.917969 0.183594 1.35938 0 1.875 0H22.125C22.6406 0 23.082 0.183594 23.4492 0.550781C23.8164 0.917969 24 1.35938 24 1.875Z" fill="black"/>
</svg>
