<svg width="10" height="13" viewBox="0 0 10 13" fill="none" xmlns="http://www.w3.org/2000/svg">
<path d="M5 0C3.6744 0.00149204 2.40354 0.504566 1.4662 1.39887C0.528855 2.29317 0.00156917 3.50568 5.31949e-06 4.77041C-0.00158236 5.80395 0.352269 6.80945 1.00728 7.63265C1.00728 7.63265 1.14364 7.80395 1.16591 7.82867L5 12.1429L8.83591 7.82651C8.8559 7.80352 8.99272 7.63265 8.99272 7.63265L8.99318 7.63135C9.64786 6.80851 10.0015 5.80347 10 4.77041C9.99843 3.50568 9.47114 2.29317 8.5338 1.39887C7.59646 0.504566 6.3256 0.00149204 5 0ZM5 6.5051C4.6404 6.5051 4.28887 6.40336 3.98987 6.21275C3.69088 6.02214 3.45783 5.75122 3.32022 5.43425C3.18261 5.11727 3.1466 4.76848 3.21676 4.43199C3.28691 4.09549 3.46008 3.7864 3.71435 3.54379C3.96863 3.30119 4.2926 3.13598 4.64529 3.06905C4.99798 3.00211 5.36356 3.03646 5.69579 3.16776C6.02802 3.29905 6.31198 3.5214 6.51176 3.80666C6.71155 4.09193 6.81818 4.42732 6.81818 4.77041C6.81758 5.2303 6.62583 5.67119 6.28498 5.99639C5.94414 6.32158 5.48203 6.50453 5 6.5051Z" fill="black"/>
</svg>
