<svg width="90" height="111" viewBox="0 0 90 111" fill="none" xmlns="http://www.w3.org/2000/svg">
<path d="M90 66.1066C90 91.4751 68.9063 111.93 43.2614 110.967C19.2236 110.064 0.02047 90.1469 0.000102205 66.1436C-0.0249493 54.4279 4.55615 43.1695 12.7596 34.7863L12.7892 34.7568C12.9273 34.6162 13.1067 34.5233 13.3014 34.4916C13.4961 34.46 13.6958 34.4911 13.8715 34.5806C14.0472 34.6701 14.1896 34.8132 14.278 34.9891C14.3665 35.165 14.3963 35.3645 14.3631 35.5585C14.1118 37.0681 14.2345 38.6162 14.7205 40.0676L28.2984 80.7074C29.474 84.2419 31.7284 87.321 34.7458 89.5133C37.7462 91.6917 41.3614 92.8655 45.0722 92.8661C52.6639 92.8661 59.4186 87.9745 61.8479 80.7074L75.1907 40.7714C75.7269 39.1615 75.8542 37.4439 75.561 35.7728C75.5229 35.5574 75.5548 35.3354 75.6521 35.1394C75.7494 34.9433 75.907 34.7835 76.1018 34.6832C76.2967 34.5829 76.5186 34.5474 76.7351 34.5819C76.9516 34.6164 77.1514 34.7191 77.3053 34.875L77.3367 34.9082C85.4691 43.2657 90.0123 54.4588 90 66.1066Z" fill="#59AB44"/>
<path d="M64.8013 7.08666L60.5647 23.5457L60.5555 23.579L59.4723 27.7889L50.6345 59.4509C49.0921 64.9742 41.2357 64.965 39.7099 59.4362L31.1925 28.3542C30.922 27.3663 30.9253 26.3238 31.2022 25.3377C31.479 24.3516 32.019 23.459 32.7645 22.7551L33.146 22.3968L52.5361 4.11442L55.5561 1.44513C59.7389 -2.24939 66.1918 1.68712 64.8013 7.08666Z" fill="#59AB44"/>
</svg>
