<svg width="267" height="267" viewBox="0 0 267 267" fill="none" xmlns="http://www.w3.org/2000/svg">
<path d="M66.8728 245.816C103.671 263.353 163.329 263.358 200.127 245.816C236.925 228.274 236.92 199.844 200.127 182.308C163.335 164.771 103.671 164.771 66.8728 182.308C30.0749 199.844 30.0802 228.28 66.8728 245.816Z" fill="#F5F5F5"/>
<path d="M199.999 232.856C206.776 232.856 212.27 230.238 212.27 227.009C212.27 223.779 206.776 221.161 199.999 221.161C193.222 221.161 187.728 223.779 187.728 227.009C187.728 230.238 193.222 232.856 199.999 232.856Z" fill="#EBEBEB"/>
<path d="M64.0801 227.847L68.4215 225.343C70.8454 223.365 72.6904 220.769 73.7615 217.829C75.1018 214.134 74.9149 211.325 73.9537 209.915C72.7736 208.18 69.7138 208.484 69.591 212.137C69.3346 219.335 67.236 224.328 64.0801 227.847Z" fill="#CE1126"/>
<path d="M64.0801 227.847L68.4215 225.343C70.8454 223.365 72.6904 220.769 73.7615 217.829C75.1018 214.134 74.9149 211.325 73.9537 209.915C72.7736 208.18 69.7138 208.484 69.591 212.137C69.3346 219.335 67.236 224.328 64.0801 227.847Z" fill="#58A844"/>
<path d="M64.0801 228.114C64.0236 228.113 63.9687 228.095 63.9235 228.061C63.8782 228.027 63.8448 227.98 63.8282 227.926C63.8116 227.872 63.8125 227.814 63.8309 227.76C63.8493 227.707 63.8842 227.661 63.9306 227.628C73.9698 220.686 72.0261 211.005 72.0047 210.909C71.9973 210.874 71.9969 210.837 72.0036 210.802C72.0102 210.767 72.0237 210.734 72.0433 210.704C72.0628 210.674 72.0881 210.648 72.1177 210.627C72.1473 210.607 72.1806 210.593 72.2156 210.586C72.2507 210.578 72.2869 210.578 72.3221 210.585C72.3573 210.591 72.3908 210.605 72.4208 210.624C72.4508 210.644 72.4767 210.669 72.4969 210.699C72.5171 210.728 72.5313 210.762 72.5387 210.797C72.5387 210.898 74.5893 220.911 64.251 228.066C64.2008 228.1 64.1408 228.117 64.0801 228.114Z" fill="white"/>
<path d="M55.3808 232.872C55.3808 232.872 53.8696 231.644 54.2327 229.978C54.5958 228.312 55.573 227.115 53.9016 224.969C52.2302 222.822 51.7656 219.96 53.7628 218.411C55.2847 217.21 57.661 218.908 58.5154 215.741C59.1455 213.424 58.9319 208.292 61.8849 206.583C64.8379 204.874 66.6909 207.448 66.2263 210.93C65.8205 214.043 65.2438 217.039 65.6923 217.872C66.5574 219.474 68.0366 219.255 67.9672 222.181C67.9084 224.905 65.3292 227.158 65.3292 227.158L55.3808 232.872Z" fill="#58A844"/>
<path d="M60.3418 230.261C60.2765 230.26 60.2136 230.236 60.1646 230.193C60.1156 230.15 60.0837 230.091 60.0748 230.026C59.3111 223.698 61.1428 212.772 62.638 209.526C62.6506 209.49 62.6707 209.457 62.6971 209.429C62.7235 209.402 62.7554 209.38 62.7908 209.366C62.8263 209.352 62.8643 209.345 62.9024 209.347C62.9405 209.349 62.9778 209.359 63.0118 209.376C63.0436 209.39 63.0723 209.411 63.0961 209.437C63.1199 209.462 63.1383 209.492 63.1502 209.525C63.1622 209.558 63.1674 209.593 63.1657 209.628C63.1639 209.663 63.1551 209.697 63.1399 209.729C61.6607 212.933 59.8932 223.89 60.6248 229.94C60.6323 230.01 60.6118 230.081 60.5678 230.136C60.5238 230.191 60.4598 230.226 60.3898 230.234L60.3418 230.261Z" fill="white"/>
<path d="M60.1973 225.332C60.1564 225.334 60.1158 225.325 60.0798 225.305C58.2268 224.403 57.052 221.183 57.0039 221.033C56.9909 221 56.9846 220.965 56.9854 220.929C56.9863 220.893 56.9943 220.858 57.009 220.826C57.0237 220.793 57.0448 220.764 57.071 220.74C57.0972 220.715 57.128 220.697 57.1615 220.684C57.1951 220.672 57.2308 220.667 57.2664 220.669C57.3021 220.671 57.337 220.68 57.3691 220.695C57.4012 220.711 57.4298 220.733 57.4533 220.76C57.4768 220.787 57.4947 220.818 57.5059 220.852C57.5059 220.884 58.654 224.002 60.3147 224.809C60.3692 224.835 60.4131 224.879 60.4392 224.934C60.4653 224.988 60.4721 225.05 60.4585 225.109C60.4448 225.168 60.4115 225.221 60.3641 225.258C60.3166 225.296 60.2578 225.316 60.1973 225.316V225.332Z" fill="white"/>
<path d="M60.1658 227.468C60.1123 227.468 60.06 227.452 60.0161 227.421C59.9722 227.391 59.9387 227.347 59.9201 227.297C59.8936 227.232 59.8938 227.159 59.9208 227.094C59.9478 227.029 59.9994 226.977 60.0643 226.95C63.1829 225.7 65.1266 221.989 65.148 221.946C65.1806 221.883 65.2369 221.836 65.3044 221.814C65.372 221.793 65.4454 221.799 65.5085 221.832C65.5715 221.864 65.619 221.92 65.6405 221.988C65.662 222.056 65.6558 222.129 65.6233 222.192C65.5378 222.352 63.5674 226.122 60.2833 227.447C60.2467 227.464 60.2061 227.471 60.1658 227.468Z" fill="white"/>
<path d="M169.171 198.739C169.171 198.739 166.838 194.958 166.608 190.852C166.378 186.745 167.281 185.036 168.52 184.545C169.759 184.054 169.855 185.565 170.49 186.457C171.126 187.349 172.423 186.841 172.904 184.059C173.385 181.277 175.136 176.583 178.778 175.67C182.783 174.677 180.636 179.376 179.627 181.208C178.618 183.039 177.838 185.538 178.5 186.217C179.162 186.895 180.193 185.64 181.17 186.804C182.361 188.208 178.66 193.265 176.535 194.488L169.171 198.739Z" fill="#58A844"/>
<path d="M172.37 197.153C172.335 197.151 172.3 197.143 172.268 197.128C172.237 197.114 172.208 197.093 172.184 197.067C172.16 197.041 172.142 197.011 172.13 196.978C172.118 196.945 172.112 196.91 172.114 196.875C172.475 190.269 174.535 183.869 178.094 178.292C178.114 178.263 178.14 178.238 178.17 178.219C178.2 178.201 178.234 178.188 178.269 178.183C178.304 178.177 178.339 178.179 178.374 178.187C178.408 178.196 178.44 178.212 178.468 178.233C178.524 178.275 178.562 178.337 178.572 178.405C178.583 178.474 178.567 178.545 178.527 178.602C175.031 184.097 173.008 190.399 172.653 196.902C172.651 196.937 172.642 196.971 172.627 197.003C172.611 197.034 172.59 197.063 172.563 197.086C172.537 197.109 172.507 197.127 172.473 197.139C172.44 197.15 172.405 197.155 172.37 197.153Z" fill="white"/>
<path d="M172.674 193.997C172.63 193.996 172.586 193.985 172.546 193.965C171.051 193.137 170.223 190.681 170.191 190.579C170.179 190.546 170.174 190.511 170.176 190.475C170.178 190.44 170.187 190.406 170.202 190.374C170.218 190.342 170.239 190.314 170.266 190.29C170.292 190.267 170.323 190.249 170.357 190.237C170.424 190.216 170.497 190.221 170.56 190.253C170.623 190.285 170.671 190.341 170.693 190.408C170.693 190.408 171.494 192.774 172.829 193.495C172.89 193.531 172.934 193.588 172.953 193.656C172.972 193.724 172.964 193.796 172.931 193.858C172.906 193.904 172.869 193.942 172.823 193.966C172.778 193.991 172.726 194.002 172.674 193.997Z" fill="white"/>
<path d="M172.936 192.379C172.877 192.378 172.819 192.358 172.773 192.321C172.726 192.284 172.694 192.233 172.679 192.176C172.671 192.142 172.669 192.107 172.674 192.073C172.679 192.038 172.69 192.005 172.708 191.975C172.726 191.945 172.75 191.919 172.778 191.899C172.806 191.878 172.838 191.864 172.872 191.855C176.727 190.878 178.062 188.86 178.073 188.838C178.092 188.809 178.116 188.783 178.145 188.762C178.174 188.742 178.207 188.728 178.241 188.72C178.276 188.712 178.311 188.712 178.346 188.718C178.381 188.724 178.414 188.737 178.444 188.756C178.474 188.774 178.5 188.799 178.52 188.828C178.54 188.857 178.554 188.89 178.562 188.924C178.57 188.958 178.571 188.994 178.565 189.029C178.558 189.064 178.546 189.097 178.527 189.127C178.468 189.217 177.08 191.337 173.005 192.373L172.936 192.379Z" fill="white"/>
<path d="M111.072 190.44C111.072 190.44 105.951 189.191 105.684 179.6C105.401 169.251 106.939 157.172 100.878 156.195C94.817 155.218 91.4528 162.603 91.5276 171.227C91.597 178.778 94.6408 195.172 111.051 198.386L111.072 190.44Z" fill="#CE1126"/>
<path d="M111.072 190.44C111.072 190.44 105.951 189.191 105.684 179.6C105.401 169.251 106.939 157.172 100.878 156.195C94.817 155.218 91.4528 162.603 91.5276 171.227C91.597 178.778 94.6408 195.172 111.051 198.386L111.072 190.44Z" fill="#58A844"/>
<path d="M111.072 197.404H111.024C107.334 196.731 104.327 194.696 102.09 191.364C95.4575 181.469 97.5454 162.993 98.2343 159.767C98.2497 159.699 98.2911 159.639 98.3498 159.6C98.4086 159.561 98.4801 159.546 98.5493 159.559C98.6185 159.576 98.6786 159.618 98.7173 159.678C98.7561 159.737 98.7705 159.81 98.7576 159.88C98.0794 163.084 96.0022 181.325 102.533 191.065C103.484 192.576 104.738 193.872 106.216 194.872C107.694 195.872 109.364 196.554 111.12 196.875C111.155 196.881 111.188 196.895 111.217 196.914C111.247 196.933 111.273 196.959 111.293 196.988C111.312 197.017 111.326 197.05 111.333 197.085C111.34 197.12 111.34 197.155 111.333 197.19C111.322 197.251 111.289 197.306 111.242 197.345C111.194 197.384 111.133 197.405 111.072 197.404Z" fill="white"/>
<path d="M111.072 222.016C105.78 222.731 97.1877 222.721 92.2268 218.812C87.2659 214.903 88.3019 211.539 90.2083 210.134C92.1146 208.73 93.7701 207.128 90.4913 204.009C87.2125 200.891 81.9473 195.882 80.2385 188.369C78.5297 180.855 79.3734 176.156 82.7269 174.591C85.979 173.075 86.8387 175.488 88.8306 180.465C90.8224 185.442 95.3026 181.176 99.1367 182.729C102.971 184.283 102.816 187.359 103.056 190.003C103.297 192.646 104.562 193.377 106.736 193.377C108.909 193.377 111.072 194.627 111.072 197.115V222.016Z" fill="#58A844"/>
<path d="M111.072 213.29C111.049 213.295 111.025 213.295 111.002 213.29C110.773 213.226 105.299 211.635 97.3265 204.314C88.8359 196.517 84.8309 184.823 84.7882 184.705C84.7677 184.638 84.774 184.565 84.8059 184.503C84.8377 184.44 84.8926 184.392 84.959 184.369C85.0256 184.347 85.0982 184.352 85.1612 184.383C85.2241 184.414 85.2724 184.468 85.2955 184.534C85.3328 184.652 89.3005 196.218 97.6896 203.919C105.55 211.144 111.088 212.762 111.146 212.778C111.18 212.788 111.211 212.804 111.239 212.826C111.266 212.848 111.289 212.875 111.306 212.906C111.323 212.936 111.333 212.97 111.337 213.005C111.341 213.04 111.338 213.075 111.328 213.109C111.311 213.163 111.276 213.21 111.23 213.242C111.184 213.275 111.128 213.292 111.072 213.29Z" fill="white"/>
<path d="M99.5536 206.172C99.4999 206.173 99.4473 206.157 99.4032 206.126C99.3591 206.096 99.3258 206.052 99.3079 206.001C97.5938 201.601 97.204 192.187 97.1719 191.786C97.1704 191.716 97.1963 191.647 97.2441 191.596C97.2919 191.544 97.3579 191.513 97.4283 191.509C97.498 191.51 97.5649 191.536 97.6161 191.584C97.6674 191.631 97.6994 191.695 97.7059 191.765C97.7059 191.861 98.1064 201.489 99.7885 205.809C99.8014 205.842 99.8076 205.877 99.8067 205.913C99.8059 205.948 99.798 205.983 99.7836 206.015C99.7692 206.047 99.7486 206.076 99.7228 206.101C99.6971 206.125 99.6668 206.144 99.6337 206.156C99.6079 206.165 99.5809 206.171 99.5536 206.172Z" fill="white"/>
<path d="M99.5105 212.5C99.0182 212.504 98.5261 212.479 98.0367 212.425C98.0016 212.421 97.9677 212.41 97.9369 212.393C97.9062 212.375 97.8791 212.352 97.8573 212.324C97.8354 212.296 97.8193 212.265 97.8098 212.231C97.8003 212.197 97.7975 212.161 97.8017 212.126C97.8059 212.091 97.817 212.057 97.8343 212.026C97.8516 211.996 97.8748 211.968 97.9026 211.947C97.9303 211.925 97.9621 211.909 97.9961 211.899C98.0301 211.89 98.0657 211.887 98.1008 211.891C98.1488 211.891 103.12 212.457 105.401 210.134C105.424 210.106 105.454 210.083 105.487 210.067C105.52 210.051 105.556 210.042 105.592 210.04C105.629 210.038 105.666 210.044 105.7 210.057C105.735 210.07 105.766 210.091 105.792 210.116C105.818 210.142 105.839 210.173 105.852 210.207C105.866 210.242 105.873 210.278 105.871 210.315C105.87 210.352 105.861 210.388 105.846 210.421C105.83 210.454 105.807 210.484 105.78 210.508C104.13 212.212 101.251 212.5 99.5105 212.5Z" fill="white"/>
<path d="M95.6664 111.382L95.0897 108.055L92.1207 110.01C91.8494 109.476 91.4649 109.007 90.9939 108.637L92.4144 104.792L89.7444 104.2L87.7899 107.938C87.0828 108.057 86.3972 108.28 85.7554 108.6L84.9063 105.78L81.7344 108.274L81.9426 111.585C81.2967 112.308 80.7109 113.084 80.1911 113.902L77.5745 113.769L75.7375 117.886L77.9857 118.847C77.751 119.699 77.6025 120.572 77.5425 121.453L74.6855 124.081L75.2569 127.413L78.2313 125.458C78.501 125.992 78.8859 126.459 79.3581 126.825L77.9643 130.675L80.6343 131.263L83.4325 128.539C84.0786 128.438 83.9184 127.22 84.6233 126.873L85.4724 129.682L88.639 127.194L88.5589 125.891C89.1997 125.175 91.624 123.6 92.1474 122.778L92.8042 121.71L94.6411 117.592L93.7867 116.044L92.8362 114.025L95.6664 111.382ZM85.9743 122.334C83.5393 124.246 82.7703 124.668 82.3591 122.11C81.948 119.552 83.3417 115.665 85.7767 113.748C88.2118 111.831 89.1409 111.697 89.5788 114.25C90.0167 116.802 88.4147 120.444 85.9743 122.334Z" fill="#E0E0E0"/>
<path d="M89.766 104.2L93.2316 106.197L91.2772 109.924L87.8115 107.927L89.766 104.2Z" fill="#F5F5F5"/>
<path d="M98.5548 110.052L95.5858 112.007L92.1201 110.01L95.0892 108.055L98.5548 110.052Z" fill="#F5F5F5"/>
<path d="M98.08 119.573L95.8319 118.617L92.3662 116.62L94.6143 117.576L98.08 119.573Z" fill="#E0E0E0"/>
<path d="M77.959 130.675L81.4246 132.667L82.8451 128.822L79.3794 126.825L77.959 130.675Z" fill="#E0E0E0"/>
<path d="M88.9061 131.679L85.4457 129.682L84.5967 126.873L88.0623 128.87L88.9061 131.679Z" fill="#E0E0E0"/>
<path d="M99.127 113.379L98.5556 110.052L95.5866 112.007C95.3133 111.472 94.927 111.004 94.4545 110.634L95.8749 106.79L93.2316 106.197L91.2719 109.935C90.5648 110.054 89.8792 110.277 89.2373 110.597L88.3936 107.788L85.2216 110.282L85.4299 113.593C84.7833 114.321 84.1975 115.102 83.6784 115.926L81.0564 115.793L79.2195 119.91L81.4676 120.871C81.2351 121.725 81.0866 122.6 81.0244 123.482L78.1729 126.072L78.7442 129.404L81.7133 127.45C81.9866 127.983 82.373 128.449 82.8453 128.817L81.4249 132.662L84.0949 133.255L86.0493 129.517C86.7592 129.399 87.447 129.174 88.0892 128.849L88.9329 131.658L92.1049 129.169L91.8966 125.859C92.5426 125.135 93.1284 124.36 93.6482 123.541L96.2701 123.669L98.1071 119.552L95.8269 118.596C96.0633 117.743 96.2135 116.868 96.2754 115.985L99.127 113.379ZM89.4456 124.353C87.0159 126.265 84.6876 125.747 84.2444 123.194C83.8012 120.641 85.4192 117.016 87.8543 115.104C90.2893 113.192 92.6122 113.715 93.0554 116.268C93.4986 118.821 91.8806 122.441 89.4456 124.353Z" fill="#EBEBEB"/>
<path d="M88.3935 107.777L84.9278 105.78L81.7559 108.274L85.2215 110.271L88.3935 107.777Z" fill="#F5F5F5"/>
<path d="M81.7559 108.274L81.9641 111.585L85.4298 113.582L85.2215 110.271L81.7559 108.274Z" fill="#E0E0E0"/>
<path d="M83.678 115.899L80.2123 113.902L77.5957 113.774L81.056 115.771L83.678 115.899Z" fill="#F5F5F5"/>
<path d="M77.5957 113.774L75.7588 117.886L79.2191 119.883L81.0561 115.771L77.5957 113.774Z" fill="#E0E0E0"/>
<path d="M81.0242 123.45L77.5639 121.453L74.707 124.08L78.1674 126.078L81.0242 123.45Z" fill="#F5F5F5"/>
<path d="M78.7441 129.41L75.2784 127.413L74.707 124.081L78.1674 126.078L78.7441 129.41Z" fill="#E0E0E0"/>
<path d="M93.2313 106.197L89.7656 104.2L92.4143 104.792L95.8746 106.79L93.2313 106.197Z" fill="#F5F5F5"/>
<path d="M80.1483 96.2803V91.3087L76.1914 93.0923C75.9818 92.2488 75.6199 91.4507 75.1234 90.7374L77.6172 85.7124L74.5734 83.9556L71.4655 88.6281C70.5994 88.5524 69.7268 88.6375 68.8916 88.879L68.4537 84.559L64.1497 87.0474L63.7171 91.8534C62.7804 92.6834 61.9191 93.5948 61.1433 94.5768L58.0354 93.5088L54.9916 98.7847L57.48 100.921C57.0202 102.084 56.6629 103.284 56.412 104.509L52.4551 107.291V112.268L56.412 110.485C56.6216 111.328 56.9835 112.126 57.48 112.84L55.0023 117.87L58.0461 119.627L61.1539 114.954C62.02 115.03 62.8926 114.945 63.7278 114.703L64.1604 119.023L68.4644 116.535L68.9023 111.729C70.2456 111.239 71.4357 110.402 72.3519 109.305L74.584 110.09L77.6278 104.819L75.7588 103.217C76.1646 101.881 76.3149 100.481 76.2021 99.0891L80.1483 96.2803ZM66.3017 108.701C63.0016 110.607 60.9617 109.235 60.9617 105.438C60.9617 101.642 63.6904 96.9478 66.9959 95.0414C70.3014 93.135 72.2985 94.5074 72.2985 98.3362C72.2985 102.165 69.6072 106.789 66.3017 108.701Z" fill="#E0E0E0"/>
<path d="M78.034 85.9474L74.5737 83.9556L71.4658 88.6281L74.9261 90.6252L78.034 85.9474Z" fill="#F5F5F5"/>
<path d="M83.614 93.3058L80.1483 91.3086L76.1914 93.0922L79.6571 95.0893L83.614 93.3058Z" fill="#F5F5F5"/>
<path d="M67.6097 121.02L64.1493 119.023L63.7168 114.703L67.1771 116.7L67.6097 121.02Z" fill="#E0E0E0"/>
<path d="M54.9863 117.87L58.452 119.867L60.9458 114.842L57.4801 112.845L54.9863 117.87Z" fill="#E0E0E0"/>
<path d="M83.6142 98.3041V93.3325L79.6572 95.1001C79.4498 94.2558 79.0877 93.4574 78.5892 92.7451L81.083 87.7202L78.0392 85.958L74.9313 90.6358C74.0652 90.5576 73.1921 90.6427 72.3574 90.8868L71.9195 86.5561L67.6155 89.0445L67.1776 93.8505C66.2423 94.6819 65.381 95.5932 64.6037 96.5739L61.4959 95.5059L58.4521 100.782L60.9458 102.918C60.4836 104.08 60.1262 105.281 59.8778 106.506L55.9209 109.288V114.265L59.8778 112.482C60.0851 113.326 60.4472 114.125 60.9458 114.837L58.4521 119.862L61.4959 121.619L64.6037 116.946C65.4698 117.022 66.3425 116.937 67.1776 116.695L67.6155 121.015L71.9195 118.527L72.3521 113.721C73.2888 112.891 74.1501 111.979 74.926 110.997L78.0338 112.065L81.0776 106.795L78.5839 104.659C79.046 103.497 79.4034 102.296 79.6519 101.07L83.6142 98.3041ZM69.7675 110.725C66.4621 112.631 63.7814 111.083 63.7814 107.27C63.7814 103.457 66.4514 98.8167 69.7675 96.905C73.0837 94.9933 75.7483 96.5472 75.7483 100.36C75.7483 104.173 73.0676 108.787 69.7675 110.698V110.725Z" fill="#EBEBEB"/>
<path d="M61.143 94.5874L64.6034 96.5846L61.4955 95.5005L58.0352 93.498L61.143 94.5874Z" fill="#F0F0F0"/>
<path d="M58.0349 93.5035L54.9902 98.7812L58.4547 100.78L61.4994 95.5022L58.0349 93.5035Z" fill="#F5F5F5"/>
<path d="M54.9863 98.7739L58.452 100.771L60.9458 102.918L57.4801 100.926L54.9863 98.7739Z" fill="#E0E0E0"/>
<path d="M56.412 104.515L59.8777 106.512L55.9207 109.294L52.4551 107.297L56.412 104.515Z" fill="#F5F5F5"/>
<path d="M52.4551 107.297L55.9207 109.294V114.271L52.4551 112.274V107.297Z" fill="#E0E0E0"/>
<path d="M71.9191 86.5562L68.4535 84.5591L64.1494 87.0475L67.6097 89.0447L71.9191 86.5562Z" fill="#F5F5F5"/>
<path d="M116.348 229.161L166.544 200.175C166.654 200.137 166.75 200.064 166.818 199.969C166.886 199.873 166.922 199.759 166.922 199.641C166.922 199.524 166.886 199.41 166.818 199.314C166.75 199.219 166.654 199.146 166.544 199.107L161.903 196.437C161.616 196.293 161.299 196.218 160.977 196.218C160.655 196.218 160.338 196.293 160.05 196.437L109.838 225.396C109.728 225.435 109.632 225.507 109.564 225.603C109.496 225.699 109.46 225.813 109.46 225.93C109.46 226.048 109.496 226.162 109.564 226.258C109.632 226.353 109.728 226.425 109.838 226.464L114.495 229.134C114.78 229.283 115.096 229.363 115.418 229.368C115.74 229.372 116.058 229.302 116.348 229.161Z" fill="#E0E0E0"/>
<path d="M165.166 88.2652L119.904 114.399C119.231 114.838 118.671 115.43 118.27 116.125C117.868 116.821 117.636 117.602 117.592 118.404V225.776C117.592 227.249 118.628 227.848 119.904 227.111L165.166 200.977C165.84 200.538 166.4 199.947 166.802 199.251C167.204 198.555 167.436 197.774 167.478 196.972V89.6002C167.478 88.1264 166.447 87.5283 165.166 88.2652Z" fill="#455A64"/>
<path d="M119.904 114.399L165.166 88.2651C166.309 87.603 167.254 88.0141 167.446 89.1622C167.339 88.4404 167.081 87.7494 166.688 87.1345C166.295 86.5197 165.776 85.9951 165.166 85.5951L163.286 84.5271C162.57 84.1636 161.778 83.9741 160.974 83.9741C160.171 83.9741 159.379 84.1636 158.662 84.5271L113.395 110.64C112.713 111.067 112.151 111.661 111.761 112.365L118.27 116.103C118.66 115.404 119.223 114.818 119.904 114.399Z" fill="#37474F"/>
<path d="M111.072 222.016C111.116 222.818 111.348 223.599 111.75 224.295C112.152 224.99 112.712 225.582 113.384 226.021L115.27 227.089C115.922 227.415 116.636 227.6 117.365 227.631C118.094 227.663 118.821 227.54 119.499 227.27C118.431 227.687 117.582 227.073 117.582 225.754V118.404C117.608 117.598 117.842 116.813 118.26 116.124L111.75 112.386C111.338 113.07 111.105 113.847 111.072 114.645V222.016Z" fill="#263238"/>
<path d="M121.149 128.705L163.938 104.008C164.707 103.57 165.327 103.928 165.327 104.809V184.279C165.301 184.76 165.162 185.229 164.92 185.647C164.679 186.064 164.343 186.419 163.938 186.682L121.165 211.379C120.396 211.822 119.776 211.464 119.776 210.578V131.108C119.801 130.628 119.938 130.16 120.176 129.743C120.414 129.326 120.748 128.97 121.149 128.705Z" fill="white"/>
<path d="M142.534 105.401C142.298 105.556 142.102 105.764 141.961 106.009C141.82 106.254 141.738 106.529 141.723 106.811C141.723 107.345 142.086 107.542 142.534 107.281C142.771 107.127 142.969 106.919 143.11 106.673C143.251 106.428 143.332 106.153 143.346 105.871C143.346 105.353 142.983 105.145 142.534 105.401Z" fill="#37474F"/>
<path d="M142.535 202.83C141.602 203.44 140.825 204.262 140.268 205.229C139.712 206.196 139.391 207.28 139.331 208.394C139.331 210.439 140.768 211.272 142.535 210.247C143.468 209.636 144.245 208.814 144.801 207.847C145.358 206.88 145.679 205.796 145.739 204.683C145.75 202.637 144.308 201.804 142.535 202.83Z" fill="#37474F"/>
<path d="M134.851 113.668C134.382 113.979 133.992 114.397 133.714 114.887C133.436 115.376 133.276 115.925 133.249 116.487C133.249 117.523 133.975 117.945 134.851 117.427C135.325 117.119 135.72 116.702 136.003 116.212C136.286 115.722 136.449 115.173 136.48 114.608C136.48 113.572 135.753 113.15 134.851 113.668Z" fill="#37474F"/>
<path d="M138.84 113.315C138.84 114.009 139.374 114.271 139.999 113.903L150.679 107.724C151.009 107.518 151.287 107.236 151.488 106.902C151.69 106.568 151.809 106.191 151.837 105.802C151.837 105.113 151.303 104.851 150.679 105.22L139.999 111.398C139.668 111.604 139.392 111.885 139.19 112.218C138.989 112.551 138.869 112.927 138.84 113.315Z" fill="#37474F"/>
<path d="M114.681 132.144C115.06 132.391 115.376 132.724 115.602 133.115C115.829 133.507 115.96 133.946 115.984 134.398C115.984 135.231 115.402 135.567 114.681 135.151C114.304 134.903 113.99 134.57 113.764 134.178C113.539 133.787 113.408 133.348 113.384 132.897C113.384 132.069 113.966 131.733 114.681 132.144Z" fill="#37474F"/>
<path d="M114.681 142.172C115.06 142.419 115.376 142.752 115.602 143.143C115.829 143.535 115.96 143.974 115.984 144.426C115.984 145.253 115.402 145.59 114.681 145.179C114.304 144.931 113.99 144.598 113.764 144.207C113.539 143.815 113.408 143.376 113.384 142.925C113.384 142.092 113.966 141.756 114.681 142.172Z" fill="#37474F"/>
<path d="M114.276 132.347C114.655 132.594 114.97 132.926 115.196 133.318C115.423 133.709 115.554 134.149 115.579 134.6C115.579 135.428 114.997 135.765 114.276 135.353C113.897 135.107 113.581 134.774 113.355 134.382C113.128 133.991 112.998 133.551 112.973 133.1C112.978 132.267 113.56 131.946 114.276 132.347Z" fill="#455A64"/>
<path d="M114.276 142.37C114.655 142.618 114.971 142.951 115.198 143.344C115.424 143.736 115.555 144.177 115.579 144.629C115.579 145.457 114.997 145.793 114.276 145.377C113.896 145.131 113.58 144.798 113.353 144.407C113.127 144.015 112.996 143.575 112.973 143.123C112.978 142.295 113.56 141.959 114.276 142.37Z" fill="#455A64"/>
<path d="M173.988 107.324C173.988 106.437 173.368 106.079 172.599 106.523L167.478 109.476L129.826 131.22C129.421 131.483 129.085 131.838 128.844 132.255C128.602 132.673 128.463 133.142 128.438 133.623V213.072C128.438 213.958 129.057 214.316 129.826 213.873L167.494 192.123L172.599 189.175C173.004 188.912 173.34 188.558 173.582 188.14C173.823 187.723 173.962 187.254 173.988 186.772V107.324Z" fill="white"/>
<path d="M174.521 107.324C174.555 107.056 174.509 106.784 174.389 106.542C174.269 106.301 174.08 106.1 173.847 105.964C173.613 105.829 173.345 105.766 173.075 105.783C172.806 105.8 172.547 105.895 172.332 106.058L167.446 108.883L129.559 130.777C129.071 131.085 128.665 131.507 128.377 132.006C128.088 132.506 127.926 133.068 127.903 133.644V213.072C127.882 213.338 127.933 213.606 128.051 213.845C128.17 214.085 128.351 214.288 128.576 214.433C128.767 214.544 128.985 214.602 129.206 214.599C129.519 214.589 129.824 214.499 130.093 214.337L168.007 192.443L172.882 189.629C173.367 189.318 173.77 188.895 174.058 188.397C174.346 187.898 174.511 187.337 174.537 186.761L174.521 107.324ZM167.457 191.53L167.019 191.786L129.58 213.403C129.517 213.451 129.444 213.485 129.367 213.501C129.289 213.518 129.209 213.517 129.131 213.499C129.062 213.456 128.993 213.307 128.993 213.061V133.623C129.02 133.235 129.135 132.859 129.33 132.522C129.524 132.186 129.792 131.897 130.114 131.679L167.515 110.052L172.855 106.96C172.918 106.912 172.991 106.878 173.069 106.862C173.146 106.845 173.227 106.846 173.304 106.864C173.373 106.907 173.443 107.057 173.443 107.302V186.772C173.415 187.16 173.3 187.536 173.106 187.873C172.911 188.21 172.643 188.498 172.321 188.716L167.446 191.53H167.457Z" fill="#58A844"/>
<path d="M151.213 125.784C156.019 123.018 159.89 125.25 159.89 130.798C159.89 136.347 156.003 143.08 151.213 145.825C146.423 148.57 142.535 146.359 142.535 140.816C142.535 135.273 146.423 128.556 151.213 125.784Z" fill="#58A844"/>
<path d="M151.213 130.141C152.767 129.244 154.027 129.97 154.027 131.743C153.974 132.72 153.692 133.67 153.203 134.518C152.714 135.365 152.032 136.085 151.213 136.619C149.659 137.516 148.398 136.79 148.398 135.017C148.451 134.04 148.734 133.09 149.223 132.243C149.711 131.395 150.393 130.676 151.213 130.141Z" fill="#CE1126"/>
<path d="M156.697 139.711C156.697 136.763 154.63 135.567 152.072 137.041L150.47 137.964C147.918 139.438 145.846 143.027 145.846 145.974V146.77C147.325 147.256 149.183 146.994 151.186 145.825C153.404 144.457 155.28 142.599 156.67 140.394L156.697 139.711Z" fill="#CE1126"/>
<path opacity="0.7" d="M151.213 130.141C152.767 129.244 154.027 129.97 154.027 131.743C153.974 132.72 153.692 133.67 153.203 134.518C152.714 135.365 152.032 136.085 151.213 136.619C149.659 137.516 148.398 136.79 148.398 135.017C148.451 134.04 148.734 133.09 149.223 132.243C149.711 131.395 150.393 130.676 151.213 130.141Z" fill="white"/>
<path opacity="0.7" d="M156.697 139.711C156.697 136.763 154.63 135.567 152.072 137.041L150.47 137.964C147.918 139.438 145.846 143.027 145.846 145.974V146.77C147.325 147.256 149.183 146.994 151.186 145.825C153.404 144.457 155.28 142.599 156.67 140.394L156.697 139.711Z" fill="white"/>
<path d="M134.424 158.027L145.59 151.581C146.124 151.288 146.514 151.523 146.514 152.115V152.484C146.497 152.805 146.404 153.117 146.244 153.396C146.083 153.674 145.859 153.91 145.59 154.086L134.424 160.531C133.917 160.825 133.5 160.585 133.5 159.997V159.629C133.517 159.308 133.61 158.996 133.771 158.717C133.931 158.439 134.155 158.202 134.424 158.027Z" fill="#CE1126"/>
<path d="M134.424 158.027L145.59 151.581C146.124 151.288 146.514 151.523 146.514 152.115V152.484C146.497 152.805 146.404 153.117 146.244 153.396C146.083 153.674 145.859 153.91 145.59 154.086L134.424 160.531C133.917 160.825 133.5 160.585 133.5 159.997V159.629C133.517 159.308 133.61 158.996 133.771 158.717C133.931 158.439 134.155 158.202 134.424 158.027Z" fill="#58A844"/>
<path d="M133.965 165.807L167.745 146.306C167.996 146.156 168.205 146.273 168.205 146.573V150.513C168.195 150.673 168.149 150.829 168.069 150.968C167.99 151.107 167.879 151.226 167.745 151.314L133.965 170.816C133.708 170.966 133.5 170.843 133.5 170.549V166.608C133.509 166.448 133.556 166.291 133.637 166.152C133.717 166.013 133.83 165.895 133.965 165.807Z" fill="#CE1126"/>
<path d="M133.965 165.807L167.745 146.306C167.996 146.156 168.205 146.273 168.205 146.573V150.513C168.195 150.673 168.149 150.829 168.069 150.968C167.99 151.107 167.879 151.226 167.745 151.314L133.965 170.816C133.708 170.966 133.5 170.843 133.5 170.549V166.608C133.509 166.448 133.556 166.291 133.637 166.152C133.717 166.013 133.83 165.895 133.965 165.807Z" fill="#58A844"/>
<path d="M134.424 175.558L145.59 169.113C146.124 168.819 146.514 169.059 146.514 169.647V170.015C146.497 170.336 146.405 170.649 146.244 170.927C146.084 171.206 145.859 171.442 145.59 171.617L134.424 178.062C133.917 178.362 133.5 178.121 133.5 177.528V177.16C133.518 176.839 133.611 176.528 133.772 176.249C133.932 175.971 134.155 175.734 134.424 175.558Z" fill="#CE1126"/>
<path d="M134.424 175.558L145.59 169.113C146.124 168.819 146.514 169.059 146.514 169.647V170.015C146.497 170.336 146.405 170.649 146.244 170.927C146.084 171.206 145.859 171.442 145.59 171.617L134.424 178.062C133.917 178.362 133.5 178.121 133.5 177.528V177.16C133.518 176.839 133.611 176.528 133.772 176.249C133.932 175.971 134.155 175.734 134.424 175.558Z" fill="#95D784"/>
<path d="M133.965 183.338L167.745 163.837C167.996 163.687 168.205 163.81 168.205 164.104V168.045C168.195 168.205 168.149 168.36 168.069 168.499C167.99 168.638 167.879 168.757 167.745 168.846L133.965 188.347C133.708 188.497 133.5 188.379 133.5 188.08V184.139C133.509 183.979 133.556 183.823 133.637 183.684C133.717 183.544 133.83 183.426 133.965 183.338Z" fill="#CE1126"/>
<path d="M133.965 183.338L167.745 163.837C167.996 163.687 168.205 163.81 168.205 164.104V168.045C168.195 168.205 168.149 168.36 168.069 168.499C167.99 168.638 167.879 168.757 167.745 168.846L133.965 188.347C133.708 188.497 133.5 188.379 133.5 188.08V184.139C133.509 183.979 133.556 183.823 133.637 183.684C133.717 183.544 133.83 183.426 133.965 183.338Z" fill="#6CB35A"/>
<path d="M147.437 185.576L160.788 177.881C161.322 177.582 161.717 177.822 161.717 178.415V182.538C161.699 182.859 161.606 183.172 161.444 183.45C161.283 183.729 161.058 183.965 160.788 184.14L147.437 191.84C146.903 192.134 146.514 191.893 146.514 191.306V187.178C146.532 186.858 146.625 186.546 146.786 186.268C146.946 185.989 147.169 185.753 147.437 185.576Z" fill="#CE1126"/>
<path d="M147.437 185.576L160.788 177.881C161.322 177.582 161.717 177.822 161.717 178.415V182.538C161.699 182.859 161.606 183.172 161.444 183.45C161.283 183.729 161.058 183.965 160.788 184.14L147.437 191.84C146.903 192.134 146.514 191.893 146.514 191.306V187.178C146.532 186.858 146.625 186.546 146.786 186.268C146.946 185.989 147.169 185.753 147.437 185.576Z" fill="#58A844"/>
<path d="M179.051 168.178C179.051 168.178 172.494 159.132 172.109 158.032C171.805 157.221 172.109 156.014 172.205 155.453C172.301 154.892 172.387 153.643 172.483 153.317C172.643 152.708 171.858 152.831 171.415 153.386C170.972 153.942 170.822 155.053 170.593 155.234C170.363 155.416 168.617 152.868 167.704 151.694C166.79 150.519 166.219 149.803 165.658 150.241C165.258 150.556 165.557 151.24 166.219 152.244C166.606 152.784 166.962 153.346 167.287 153.926C167.389 154.145 166.844 154.161 166.55 154.615C166.321 154.967 166.55 155.538 166.23 155.811C166.033 155.961 165.897 156.178 165.85 156.421C165.803 156.665 165.847 156.917 165.973 157.13C166.568 158.063 167.334 158.875 168.232 159.522C169.215 160.2 169.61 160.441 170.192 161.364C170.774 162.288 175.997 171.724 176.349 172.29C176.701 172.856 177.38 174.01 178.41 174.042C179.441 174.074 187.878 166.811 188.311 166.448C189.699 165.289 190.142 165.124 190.377 166.165C190.458 166.535 190.519 166.91 190.559 167.286C190.724 168.611 191.627 173.342 191.627 173.342C191.627 173.342 195.899 175.409 199.407 174.41C202.916 173.411 204.101 171.922 204.101 171.922L202.344 169.059C202.819 167.879 205.014 163.095 205.724 159.746L194.724 157.968C194.5 157.92 194.137 157.829 193.656 157.707C193.053 157.546 191.52 157.018 190.361 158.032C186.58 161.327 179.062 168.178 179.062 168.178" fill="#FFA8A7"/>
<path d="M200.859 223.682L198.889 226.422C199.784 226.84 200.763 227.05 201.751 227.036C203.518 227.1 204.004 226.502 204.068 226.384C204.368 225.743 203.903 224.59 203.775 223.597L200.859 223.682Z" fill="#37474F"/>
<path d="M199.001 225.108C199.001 225.108 196.609 224.953 194.959 224.75C193.309 224.547 192.001 225.348 192.385 226.026C192.769 226.704 193.683 227.271 195.103 227.746C196.315 228.157 197.773 228.451 199.033 228.814C200.294 229.177 201.169 229.652 201.901 229.396C202.718 229.113 203.07 228.787 203.001 228.189C202.823 227.338 202.602 226.497 202.339 225.669L199.001 225.108Z" fill="#37474F"/>
<path d="M204.069 220.932C204.069 220.932 203.77 223.42 203.749 223.954C203.727 224.488 201.319 224.659 200.86 223.682L200.785 220.638L204.069 220.932Z" fill="#F28F8F"/>
<path d="M201.644 222.459L202.504 226.24C202.504 226.24 202.584 226.699 200.619 226.993C198.654 227.287 195.568 225.962 195.039 225.695C194.51 225.428 194.452 224.889 196.385 224.996C198.318 225.103 199.001 225.108 199.001 225.108L198.371 223.436L201.644 222.459Z" fill="#FFA8A7"/>
<path d="M205.693 159.714L207.054 159.335C207.054 159.335 209.901 168.344 210.216 169.214C210.531 170.084 210.889 171.003 210.275 172.076C209.543 173.352 205.693 178.484 205.693 178.484L203.247 176.092L206.024 171.008L203.567 166.042L205.693 159.714Z" fill="#F28F8F"/>
<path d="M191.707 148.014C191.388 147.415 191.226 146.745 191.236 146.066C191.246 145.387 191.428 144.721 191.766 144.132C193.122 141.617 196.144 140.394 199.744 140.859C201.41 141.078 203.375 142.461 204.448 144.527C205.634 146.818 205.746 151.432 206.05 153.178L191.707 148.014Z" fill="#37474F"/>
<path d="M191.611 149.002C191.611 149.002 190.757 150.631 190.906 150.781C191.128 150.91 191.37 151 191.622 151.048L191.611 149.002Z" fill="#FFA8A7"/>
<path d="M194.206 143.855C193.277 144.458 191.675 145.569 191.606 149.227C191.531 152.965 192.065 154.198 192.62 154.631C192.994 154.924 195.189 154.775 196.129 154.556C197.069 154.337 199.776 152.997 200.753 150.962C201.901 148.57 201.666 145.088 199.963 144.02C199.096 143.507 198.113 143.223 197.106 143.194C196.099 143.165 195.101 143.393 194.206 143.855Z" fill="#FFA8A7"/>
<path d="M204.068 171.9C205.713 174.463 207.272 176.706 207.614 179.6C208.319 185.683 206.012 192.635 205.516 197.137C206.45 198.417 206.988 199.943 207.064 201.526C207.064 203.39 204.068 220.932 204.068 220.932C204.068 220.932 201.89 221.594 200.784 220.638L198.729 188.369L199.797 184.438L204.068 171.9Z" fill="#58A844"/>
<path d="M198.729 188.369L199.797 184.439C201.841 183.9 203.814 183.117 205.67 182.105C205.67 182.105 204.56 184.129 201.366 185.24L199.716 190.286L199.578 201.847L198.729 188.369Z" fill="#CE1126"/>
<path d="M198.729 188.369L199.797 184.439C201.841 183.9 203.814 183.117 205.67 182.105C205.67 182.105 204.56 184.129 201.366 185.24L199.716 190.286L199.578 201.847L198.729 188.369Z" fill="#5E9A50"/>
<path d="M204.069 171.9C204.95 173.342 207.054 175.798 206.605 178.164C206.071 181.026 204.523 183.039 199.813 184.438L195.391 200.458C195.391 200.458 197.693 202.594 198.398 204.661C199.102 206.728 201.644 222.47 201.644 222.47C201.644 222.47 200.854 223.757 198.371 223.447C198.371 223.447 189.715 203.689 189.106 202.402C188.367 201.099 188.108 199.578 188.374 198.104C188.647 196.032 191.578 173.353 191.578 173.353L204.069 171.9Z" fill="#58A844"/>
<path d="M205.692 159.714L194.692 157.936C194.468 157.888 194.104 157.797 193.624 157.674C193.624 157.674 193.154 164.574 190.329 166.154C190.399 166.485 190.457 166.854 190.511 167.276C190.676 168.6 191.579 173.331 191.579 173.331C191.579 173.331 195.851 175.398 199.359 174.399C202.867 173.401 204.053 171.911 204.053 171.911L202.296 169.049C202.787 167.858 204.998 163.073 205.692 159.714Z" fill="#CE1126"/>
<path opacity="0.7" d="M205.692 159.714L194.692 157.936C194.468 157.888 194.104 157.797 193.624 157.674C193.624 157.674 193.154 164.574 190.329 166.154C190.399 166.485 190.457 166.854 190.511 167.276C190.676 168.6 191.579 173.331 191.579 173.331C191.579 173.331 195.851 175.398 199.359 174.399C202.867 173.401 204.053 171.911 204.053 171.911L202.296 169.049C202.787 167.858 204.998 163.073 205.692 159.714Z" fill="white"/>
<path d="M202.793 167.911C201.332 168.788 199.802 169.544 198.217 170.17C199.655 170.141 201.064 169.752 202.313 169.038L202.793 167.911Z" fill="#58A844"/>
<path d="M193.934 144.036C193.934 144.036 193.4 147.507 194.66 149.547C194.66 149.547 195.13 148.164 196.299 148.426C197.469 148.687 197.533 150.231 196.71 151.096C196.501 151.338 196.228 151.517 195.922 151.612C195.616 151.706 195.29 151.712 194.98 151.63C194.98 151.63 194.793 154.139 194.692 156.243C194.59 158.347 194.035 162.934 196.401 164.787C198.766 166.64 204.704 167.292 207.487 163.404C209.035 161.242 206.979 157.418 206.023 153.13C205.142 149.189 204.646 143.347 200.464 142.407C196.283 141.468 193.934 144.036 193.934 144.036Z" fill="#37474F"/>
<path d="M209.275 96.6115L208.394 97.1455C208.468 96.832 208.509 96.5116 208.516 96.1896C208.516 94.4007 207.262 93.6798 205.713 94.5876C205.242 94.8719 204.821 95.2328 204.469 95.6556C204.469 93.2526 202.781 92.2754 200.699 93.4769C199.601 94.1926 198.688 95.1569 198.033 96.2916C197.378 97.4263 197 98.6994 196.929 100.008C196.929 100.131 196.929 100.248 196.929 100.365C196.392 100.298 195.849 100.423 195.396 100.718C194.58 101.25 193.901 101.966 193.414 102.81C192.927 103.653 192.645 104.599 192.593 105.572C192.592 105.798 192.616 106.024 192.662 106.245L192.192 106.517C190.916 107.254 189.88 108.691 189.88 109.721C189.88 110.752 190.916 110.997 192.192 110.255L209.28 100.403C210.556 99.6659 211.592 98.2295 211.592 97.1989C211.592 96.1682 210.551 95.8692 209.275 96.6115Z" fill="#EBEBEB"/>
</svg>
