<svg width="18" height="18" viewBox="0 0 18 18" fill="none" xmlns="http://www.w3.org/2000/svg">
<path d="M2.05364 9.55659H11.7998C12.1109 9.55659 12.3623 9.30459 12.3623 8.99409C12.3623 8.68359 12.1109 8.43159 11.7998 8.43159H2.0888L4.12364 6.39675C4.3433 6.17709 4.3433 5.82103 4.12364 5.60138C3.90398 5.38172 3.54792 5.38172 3.32827 5.60138L0.00585938 9.01153L3.32827 12.4217C3.43823 12.5317 3.58195 12.5865 3.72595 12.5865C3.86995 12.5865 4.01367 12.5317 4.12364 12.4217C4.3433 12.202 4.3433 11.846 4.12364 11.6263L2.05364 9.55659ZM16.869 0H7.30653C6.68497 0 6.18153 0.503719 6.18153 1.125V6.1875H7.31384V1.81097C7.31384 1.43522 7.61872 1.13034 7.99447 1.13034H16.1634C16.5394 1.13034 16.844 1.43522 16.844 1.81097L16.8617 16.1949C16.8617 16.5707 16.5571 16.8756 16.1811 16.8756H7.99477C7.61902 16.8756 7.31414 16.5707 7.31414 16.1949V11.7939L6.18183 11.7953V16.875C6.18183 17.4963 6.68527 18 7.30683 18H16.869C17.4906 18 17.9943 17.4963 17.9943 16.875V1.125C17.9941 0.503719 17.4903 0 16.8691 0H16.869Z" fill="white"/>
</svg>
