<svg width="17" height="18" viewBox="0 0 17 18" fill="none" xmlns="http://www.w3.org/2000/svg">
<path d="M6.6106 2.5C6.6106 2.36739 6.66327 2.24021 6.75704 2.14645C6.85081 2.05268 6.97799 2 7.1106 2H9.1106C9.2432 2 9.37038 2.05268 9.46415 2.14645C9.55792 2.24021 9.6106 2.36739 9.6106 2.5C9.6106 2.63261 9.55792 2.75979 9.46415 2.85355C9.37038 2.94732 9.2432 3 9.1106 3H7.1106C6.97799 3 6.85081 2.94732 6.75704 2.85355C6.66327 2.75979 6.6106 2.63261 6.6106 2.5Z" fill="black"/>
<path fill-rule="evenodd" clip-rule="evenodd" d="M12.7926 6.26C12.6111 6.4025 12.3756 6.5165 12.0916 6.609C12.146 7.16447 12.0835 7.72517 11.9081 8.25504C11.7328 8.78491 11.4485 9.27222 11.0735 9.68563C10.6986 10.0991 10.2413 10.4294 9.73098 10.6555C9.2207 10.8816 8.66876 10.9984 8.11063 10.9984C7.55251 10.9984 7.00056 10.8816 6.49028 10.6555C5.97999 10.4294 5.52268 10.0991 5.14772 9.68563C4.77277 9.27222 4.48849 8.78491 4.31315 8.25504C4.13781 7.72517 4.0753 7.16447 4.12963 6.609C3.84563 6.5165 3.61013 6.4025 3.42913 6.26C3.19413 6.075 3.03663 5.828 3.01813 5.531C3.00063 5.2555 3.10963 5.0215 3.21863 4.8565C3.32623 4.70022 3.454 4.55883 3.59863 4.436C3.66863 4.3745 3.73763 4.32 3.80163 4.2725C3.78263 4.17 3.76163 4.046 3.74063 3.9025C3.65205 3.27224 3.60861 2.63645 3.61063 2C3.61063 1.843 3.67763 1.726 3.70863 1.6765C3.74763 1.614 3.79363 1.5605 3.83563 1.5175C3.91913 1.43 4.02713 1.341 4.14563 1.2555C4.38563 1.0815 4.71563 0.886 5.10763 0.703C5.88913 0.338 6.96263 0 8.11063 0C9.25913 0 10.3321 0.3385 11.1136 0.703C11.4506 0.857139 11.7727 1.04209 12.0756 1.2555C12.1941 1.341 12.3021 1.4305 12.3856 1.5175C12.4276 1.5605 12.4736 1.614 12.5126 1.6765C12.5436 1.726 12.6106 1.843 12.6106 2C12.6106 2.801 12.5456 3.45 12.4806 3.9025C12.4596 4.046 12.4386 4.17 12.4196 4.2725C12.4836 4.32 12.5531 4.3745 12.6231 4.436C12.7481 4.5455 12.8911 4.688 13.0026 4.8565C13.1121 5.0215 13.2206 5.2555 13.2036 5.5315C13.1851 5.828 13.0276 6.075 12.7926 6.26ZM4.61163 2.159C4.61913 2.833 4.67513 3.378 4.73063 3.759C4.74363 3.849 4.75663 3.929 4.76863 4H11.4526C11.4651 3.929 11.4776 3.8485 11.4906 3.759C11.5456 3.378 11.6021 2.833 11.6096 2.159C11.5707 2.1261 11.5305 2.09474 11.4891 2.065C11.3086 1.9345 11.0346 1.77 10.6906 1.6095C9.99913 1.2865 9.07263 1 8.11063 1C7.14863 1 6.22213 1.2865 5.53063 1.6095C5.18663 1.77 4.91263 1.9345 4.73263 2.0645C4.69106 2.09456 4.65069 2.12575 4.61163 2.159ZM4.50463 5L4.50313 5.001C4.41683 5.0585 4.33418 5.12129 4.25563 5.189C4.16663 5.267 4.09563 5.343 4.05263 5.409C4.0424 5.42384 4.03321 5.43938 4.02513 5.4555C4.03221 5.46196 4.03955 5.46813 4.04713 5.474C4.12213 5.533 4.28313 5.6195 4.59713 5.705C4.65913 5.722 4.72563 5.738 4.79663 5.754L4.80113 5.755C5.05213 5.8105 5.36113 5.86 5.73763 5.899C6.27113 5.9545 6.94263 5.991 7.78163 5.999L8.11063 6C9.72413 6 10.7676 5.8995 11.4206 5.755L11.4246 5.754C11.4961 5.738 11.5626 5.722 11.6246 5.705C11.9381 5.62 12.0996 5.533 12.1741 5.474C12.1817 5.46813 12.189 5.46196 12.1961 5.4555C12.1882 5.4394 12.1792 5.42386 12.1691 5.409C12.111 5.32727 12.0426 5.25334 11.9656 5.189C11.8873 5.1213 11.8048 5.05851 11.7186 5.001L11.7166 5H4.50463ZM7.97463 7C9.29563 7 10.3196 6.93 11.1046 6.808C11.1304 7.21566 11.0727 7.62429 10.935 8.00886C10.7973 8.39342 10.5825 8.74581 10.3038 9.04443C10.0251 9.34306 9.68837 9.58162 9.31421 9.74549C8.94005 9.90937 8.53637 9.99512 8.1279 9.99747C7.71943 9.99982 7.31479 9.91873 6.93877 9.75918C6.56274 9.59962 6.22327 9.36495 5.94114 9.06956C5.65902 8.77417 5.44019 8.42427 5.29807 8.04132C5.15594 7.65837 5.09352 7.25043 5.11463 6.8425C5.84613 6.9435 6.78363 7 7.97463 7ZM4.14963 16.4385C4.12358 16.6245 4.11054 16.8122 4.11063 17V17.5C4.11069 17.6099 4.07452 17.7168 4.00773 17.8041C3.94094 17.8914 3.84724 17.9542 3.74114 17.9829C3.63503 18.0116 3.52243 18.0045 3.42075 17.9628C3.31906 17.9211 3.23397 17.847 3.17863 17.752C2.84165 17.9348 2.44732 17.9812 2.07713 17.8815L1.11113 17.6225C0.727009 17.5194 0.39956 17.268 0.200784 16.9235C0.00200801 16.579 -0.051822 16.1697 0.05113 15.7855L0.43913 14.3365C0.54213 13.9523 0.793525 13.6247 1.13802 13.4258C1.48252 13.227 1.8919 13.1731 2.27613 13.276L3.24213 13.5345C3.57813 13.6245 3.85713 13.822 4.05113 14.08C4.51399 13.4357 5.12369 12.911 5.82973 12.5493C6.53577 12.1876 7.31783 11.9993 8.11113 12C8.90401 11.9995 9.68561 12.1878 10.3913 12.5493C11.0969 12.9108 11.7064 13.4352 12.1691 14.079C12.3701 13.8125 12.6546 13.6209 12.9771 13.535L13.9431 13.2765C14.3273 13.1735 14.7366 13.2274 15.0811 13.4262C15.4256 13.6249 15.677 13.9524 15.7801 14.3365L16.1686 15.786C16.2196 15.9763 16.2326 16.1747 16.2068 16.37C16.1811 16.5653 16.1171 16.7537 16.0186 16.9242C15.9201 17.0948 15.7889 17.2443 15.6326 17.3642C15.4763 17.4841 15.2979 17.5721 15.1076 17.623L14.1421 17.8815C13.7726 17.9812 13.3789 17.9354 13.0421 17.7535C12.9866 17.8483 12.9014 17.9222 12.7997 17.9638C12.6979 18.0053 12.5854 18.0122 12.4793 17.9834C12.3733 17.9545 12.2797 17.8915 12.2131 17.8041C12.1464 17.7168 12.1104 17.6099 12.1106 17.5V17C12.1107 16.8122 12.0977 16.6245 12.0716 16.4385L9.46963 17.136C9.34885 17.3945 9.15683 17.6132 8.91612 17.7665C8.6754 17.9197 8.39598 18.0011 8.11063 18.0011C7.82528 18.0011 7.54586 17.9197 7.30514 17.7665C7.06443 17.6132 6.87241 17.3945 6.75163 17.136L4.14963 16.4385ZM6.67063 16.0785C6.73774 15.8506 6.85792 15.6418 7.02131 15.4692C7.18471 15.2967 7.38667 15.1654 7.61063 15.086V13.031C6.90931 13.1197 6.24395 13.3924 5.68217 13.8215C5.12038 14.2506 4.6822 14.8207 4.41213 15.474L6.67063 16.0785ZM11.8091 15.4735C11.539 14.8203 11.1008 14.2503 10.539 13.8213C9.97722 13.3923 9.3119 13.1196 8.61063 13.031V15.0855C9.06263 15.2455 9.41563 15.6155 9.55063 16.079L11.8091 15.4735ZM12.8826 15.1135C12.8656 15.0501 12.8613 14.9839 12.8698 14.9188C12.8784 14.8537 12.8997 14.7909 12.9325 14.734C12.9653 14.6771 13.009 14.6273 13.0611 14.5873C13.1132 14.5473 13.1727 14.518 13.2361 14.501L14.2021 14.242C14.3302 14.2078 14.4665 14.2258 14.5813 14.2921C14.696 14.3584 14.7798 14.4675 14.8141 14.5955L15.2026 16.0445C15.2196 16.1079 15.224 16.1741 15.2154 16.2392C15.2069 16.3043 15.1856 16.3671 15.1528 16.424C15.1199 16.4809 15.0762 16.5307 15.0241 16.5707C14.972 16.6107 14.9126 16.64 14.8491 16.657L13.8831 16.916C13.8197 16.933 13.7535 16.9373 13.6883 16.9287C13.6232 16.9202 13.5604 16.8988 13.5035 16.8659C13.4466 16.8331 13.3968 16.7893 13.3568 16.7371C13.3169 16.685 13.2876 16.6255 13.2706 16.562L12.8826 15.1135ZM2.01763 14.242C1.95417 14.2249 1.88796 14.2205 1.82279 14.229C1.75762 14.2375 1.69478 14.2588 1.63784 14.2917C1.58091 14.3245 1.53101 14.3682 1.49099 14.4204C1.45097 14.4725 1.42163 14.532 1.40463 14.5955L1.01663 16.044C0.999616 16.1074 0.995263 16.1736 1.00382 16.2387C1.01238 16.3038 1.03368 16.3666 1.06651 16.4235C1.09933 16.4804 1.14304 16.5302 1.19514 16.5702C1.24723 16.6102 1.3067 16.6395 1.37013 16.6565L2.33613 16.9155C2.39956 16.9325 2.46572 16.9369 2.53083 16.9283C2.59594 16.9198 2.65873 16.8985 2.7156 16.8656C2.77248 16.8328 2.82234 16.7891 2.86232 16.737C2.9023 16.6849 2.93163 16.6254 2.94863 16.562L3.33663 15.113C3.35372 15.0495 3.35813 14.9833 3.34961 14.9182C3.34109 14.853 3.3198 14.7901 3.28697 14.7332C3.25414 14.6763 3.2104 14.6264 3.15827 14.5864C3.10613 14.5463 3.04662 14.517 2.98313 14.5L2.01763 14.242ZM8.61063 16.5C8.61063 16.6326 8.55795 16.7598 8.46418 16.8536C8.37042 16.9473 8.24324 17 8.11063 17C7.97802 17 7.85084 16.9473 7.75708 16.8536C7.66331 16.7598 7.61063 16.6326 7.61063 16.5C7.61063 16.3674 7.66331 16.2402 7.75708 16.1464C7.85084 16.0527 7.97802 16 8.11063 16C8.24324 16 8.37042 16.0527 8.46418 16.1464C8.55795 16.2402 8.61063 16.3674 8.61063 16.5Z" fill="black"/>
</svg>
