<svg width="17" height="18" viewBox="0 0 17 18" fill="none" xmlns="http://www.w3.org/2000/svg">
<path d="M6.6106 2.5C6.6106 2.36739 6.66327 2.24021 6.75704 2.14645C6.85081 2.05268 6.97799 2 7.1106 2H9.1106C9.2432 2 9.37038 2.05268 9.46415 2.14645C9.55792 2.24021 9.6106 2.36739 9.6106 2.5C9.6106 2.63261 9.55792 2.75979 9.46415 2.85355C9.37038 2.94732 9.2432 3 9.1106 3H7.1106C6.97799 3 6.85081 2.94732 6.75704 2.85355C6.66327 2.75979 6.6106 2.63261 6.6106 2.5Z" fill="#59AB44"/>
<path fill-rule="evenodd" clip-rule="evenodd" d="M12.7926 6.26C12.6111 6.4025 12.3756 6.5165 12.0916 6.609C12.1459 7.16447 12.0834 7.72517 11.9081 8.25504C11.7327 8.78491 11.4484 9.27222 11.0735 9.68563C10.6985 10.0991 10.2412 10.4294 9.73092 10.6555C9.22064 10.8816 8.66869 10.9984 8.11057 10.9984C7.55244 10.9984 7.0005 10.8816 6.49021 10.6555C5.97993 10.4294 5.52261 10.0991 5.14766 9.68563C4.77271 9.27222 4.48842 8.78491 4.31309 8.25504C4.13775 7.72517 4.07523 7.16447 4.12957 6.609C3.84557 6.5165 3.61007 6.4025 3.42907 6.26C3.19407 6.075 3.03657 5.828 3.01807 5.531C3.00057 5.2555 3.10957 5.0215 3.21857 4.8565C3.32617 4.70022 3.45394 4.55883 3.59857 4.436C3.66857 4.3745 3.73757 4.32 3.80157 4.2725C3.78257 4.17 3.76157 4.046 3.74057 3.9025C3.65199 3.27224 3.60855 2.63645 3.61057 2C3.61057 1.843 3.67757 1.726 3.70857 1.6765C3.74757 1.614 3.79357 1.5605 3.83557 1.5175C3.91907 1.43 4.02707 1.341 4.14557 1.2555C4.38557 1.0815 4.71557 0.886 5.10757 0.703C5.88907 0.338 6.96257 0 8.11057 0C9.25907 0 10.3321 0.3385 11.1136 0.703C11.4506 0.857139 11.7726 1.04209 12.0756 1.2555C12.1941 1.341 12.3021 1.4305 12.3856 1.5175C12.4276 1.5605 12.4736 1.614 12.5126 1.6765C12.5436 1.726 12.6106 1.843 12.6106 2C12.6106 2.801 12.5456 3.45 12.4806 3.9025C12.4596 4.046 12.4386 4.17 12.4196 4.2725C12.4836 4.32 12.5531 4.3745 12.6231 4.436C12.7481 4.5455 12.8911 4.688 13.0026 4.8565C13.1121 5.0215 13.2206 5.2555 13.2036 5.5315C13.1851 5.828 13.0276 6.075 12.7926 6.26ZM4.61157 2.159C4.61907 2.833 4.67507 3.378 4.73057 3.759C4.74357 3.849 4.75657 3.929 4.76857 4H11.4526C11.4651 3.929 11.4776 3.8485 11.4906 3.759C11.5456 3.378 11.6021 2.833 11.6096 2.159C11.5707 2.1261 11.5305 2.09474 11.4891 2.065C11.3086 1.9345 11.0346 1.77 10.6906 1.6095C9.99907 1.2865 9.07257 1 8.11057 1C7.14857 1 6.22207 1.2865 5.53057 1.6095C5.18657 1.77 4.91257 1.9345 4.73257 2.0645C4.691 2.09456 4.65063 2.12575 4.61157 2.159ZM4.50457 5L4.50307 5.001C4.41677 5.0585 4.33411 5.12129 4.25557 5.189C4.16657 5.267 4.09557 5.343 4.05257 5.409C4.04234 5.42384 4.03315 5.43938 4.02507 5.4555C4.03215 5.46196 4.03949 5.46813 4.04707 5.474C4.12207 5.533 4.28307 5.6195 4.59707 5.705C4.65907 5.722 4.72557 5.738 4.79657 5.754L4.80107 5.755C5.05207 5.8105 5.36107 5.86 5.73757 5.899C6.27107 5.9545 6.94257 5.991 7.78157 5.999L8.11057 6C9.72407 6 10.7676 5.8995 11.4206 5.755L11.4246 5.754C11.4961 5.738 11.5626 5.722 11.6246 5.705C11.9381 5.62 12.0996 5.533 12.1741 5.474C12.1816 5.46813 12.189 5.46196 12.1961 5.4555C12.1881 5.4394 12.1791 5.42386 12.1691 5.409C12.1109 5.32727 12.0425 5.25334 11.9656 5.189C11.8872 5.1213 11.8047 5.05851 11.7186 5.001L11.7166 5H4.50457ZM7.97457 7C9.29557 7 10.3196 6.93 11.1046 6.808C11.1304 7.21566 11.0727 7.62429 10.935 8.00886C10.7973 8.39342 10.5825 8.74581 10.3038 9.04443C10.0251 9.34306 9.68831 9.58162 9.31415 9.74549C8.93999 9.90937 8.53631 9.99512 8.12784 9.99747C7.71937 9.99982 7.31473 9.91873 6.93871 9.75918C6.56268 9.59962 6.22321 9.36495 5.94108 9.06956C5.65896 8.77417 5.44013 8.42427 5.29801 8.04132C5.15588 7.65837 5.09346 7.25043 5.11457 6.8425C5.84607 6.9435 6.78357 7 7.97457 7ZM4.14957 16.4385C4.12351 16.6245 4.11048 16.8122 4.11057 17V17.5C4.11062 17.6099 4.07446 17.7168 4.00767 17.8041C3.94088 17.8914 3.84718 17.9542 3.74108 17.9829C3.63497 18.0116 3.52237 18.0045 3.42069 17.9628C3.319 17.9211 3.23391 17.847 3.17857 17.752C2.84159 17.9348 2.44726 17.9812 2.07707 17.8815L1.11107 17.6225C0.726948 17.5194 0.399499 17.268 0.200723 16.9235C0.00194697 16.579 -0.051883 16.1697 0.051069 15.7855L0.439069 14.3365C0.542069 13.9523 0.793464 13.6247 1.13796 13.4258C1.48245 13.227 1.89184 13.1731 2.27607 13.276L3.24207 13.5345C3.57807 13.6245 3.85707 13.822 4.05107 14.08C4.51393 13.4357 5.12363 12.911 5.82967 12.5493C6.53571 12.1876 7.31777 11.9993 8.11107 12C8.90395 11.9995 9.68555 12.1878 10.3912 12.5493C11.0969 12.9108 11.7063 13.4352 12.1691 14.079C12.37 13.8125 12.6545 13.6209 12.9771 13.535L13.9431 13.2765C14.3272 13.1735 14.7366 13.2274 15.081 13.4262C15.4255 13.6249 15.677 13.9524 15.7801 14.3365L16.1686 15.786C16.2195 15.9763 16.2325 16.1747 16.2068 16.37C16.181 16.5653 16.1171 16.7537 16.0185 16.9242C15.92 17.0948 15.7889 17.2443 15.6326 17.3642C15.4762 17.4841 15.2979 17.5721 15.1076 17.623L14.1421 17.8815C13.7725 17.9812 13.3788 17.9354 13.0421 17.7535C12.9866 17.8483 12.9013 17.9222 12.7996 17.9638C12.6979 18.0053 12.5853 18.0122 12.4793 17.9834C12.3732 17.9545 12.2797 17.8915 12.213 17.8041C12.1464 17.7168 12.1104 17.6099 12.1106 17.5V17C12.1107 16.8122 12.0976 16.6245 12.0716 16.4385L9.46957 17.136C9.34879 17.3945 9.15677 17.6132 8.91606 17.7665C8.67534 17.9197 8.39592 18.0011 8.11057 18.0011C7.82522 18.0011 7.5458 17.9197 7.30508 17.7665C7.06437 17.6132 6.87235 17.3945 6.75157 17.136L4.14957 16.4385ZM6.67057 16.0785C6.73768 15.8506 6.85785 15.6418 7.02125 15.4692C7.18465 15.2967 7.3866 15.1654 7.61057 15.086V13.031C6.90925 13.1197 6.24389 13.3924 5.68211 13.8215C5.12032 14.2506 4.68214 14.8207 4.41207 15.474L6.67057 16.0785ZM11.8091 15.4735C11.5389 14.8203 11.1007 14.2503 10.5389 13.8213C9.97716 13.3923 9.31184 13.1196 8.61057 13.031V15.0855C9.06257 15.2455 9.41557 15.6155 9.55057 16.079L11.8091 15.4735ZM12.8826 15.1135C12.8656 15.0501 12.8612 14.9839 12.8698 14.9188C12.8783 14.8537 12.8996 14.7909 12.9324 14.734C12.9653 14.6771 13.009 14.6273 13.0611 14.5873C13.1132 14.5473 13.1726 14.518 13.2361 14.501L14.2021 14.242C14.3301 14.2078 14.4665 14.2258 14.5812 14.2921C14.696 14.3584 14.7797 14.4675 14.8141 14.5955L15.2026 16.0445C15.2196 16.1079 15.2239 16.1741 15.2154 16.2392C15.2068 16.3043 15.1855 16.3671 15.1527 16.424C15.1199 16.4809 15.0762 16.5307 15.0241 16.5707C14.972 16.6107 14.9125 16.64 14.8491 16.657L13.8831 16.916C13.8196 16.933 13.7534 16.9373 13.6883 16.9287C13.6231 16.9202 13.5603 16.8988 13.5035 16.8659C13.4466 16.8331 13.3967 16.7893 13.3568 16.7371C13.3168 16.685 13.2875 16.6255 13.2706 16.562L12.8826 15.1135ZM2.01757 14.242C1.95411 14.2249 1.8879 14.2205 1.82273 14.229C1.75756 14.2375 1.69472 14.2588 1.63778 14.2917C1.58085 14.3245 1.53094 14.3682 1.49093 14.4204C1.45091 14.4725 1.42157 14.532 1.40457 14.5955L1.01657 16.044C0.999555 16.1074 0.995202 16.1736 1.00376 16.2387C1.01232 16.3038 1.03362 16.3666 1.06644 16.4235C1.09927 16.4804 1.14298 16.5302 1.19508 16.5702C1.24717 16.6102 1.30664 16.6395 1.37007 16.6565L2.33607 16.9155C2.3995 16.9325 2.46566 16.9369 2.53077 16.9283C2.59588 16.9198 2.65867 16.8985 2.71554 16.8656C2.77242 16.8328 2.82228 16.7891 2.86226 16.737C2.90224 16.6849 2.93157 16.6254 2.94857 16.562L3.33657 15.113C3.35366 15.0495 3.35807 14.9833 3.34955 14.9182C3.34102 14.853 3.31974 14.7901 3.28691 14.7332C3.25407 14.6763 3.21034 14.6264 3.1582 14.5864C3.10607 14.5463 3.04656 14.517 2.98307 14.5L2.01757 14.242ZM8.61057 16.5C8.61057 16.6326 8.55789 16.7598 8.46412 16.8536C8.37035 16.9473 8.24318 17 8.11057 17C7.97796 17 7.85078 16.9473 7.75702 16.8536C7.66325 16.7598 7.61057 16.6326 7.61057 16.5C7.61057 16.3674 7.66325 16.2402 7.75702 16.1464C7.85078 16.0527 7.97796 16 8.11057 16C8.24318 16 8.37035 16.0527 8.46412 16.1464C8.55789 16.2402 8.61057 16.3674 8.61057 16.5Z" fill="#59AB44"/>
</svg>
