<svg width="12" height="18" viewBox="0 0 12 18" fill="none" xmlns="http://www.w3.org/2000/svg">
<path fill-rule="evenodd" clip-rule="evenodd" d="M11.6255 7.74996L11.62 7.95235L11.6255 8.16664L11.6203 8.36934L11.6255 8.5833L11.6205 8.78737L11.6254 8.99996L11.4901 14.9191C11.458 16.3235 10.3898 17.4866 8.99324 17.6378C7.00372 17.8533 4.99675 17.8533 3.00723 17.6378C1.61064 17.4866 0.542499 16.3235 0.510393 14.9191L0.375074 8.99996L0.379967 8.78597L0.375089 8.5833L0.380218 8.37017L0.375048 8.16664L0.380468 7.95327L0.375 7.74996L0.511671 2.66836C0.513578 2.59746 0.518561 2.5273 0.526495 2.45801L0.529603 2.42871L0.532069 2.40509C0.599244 1.71834 0.979811 1.11937 1.53442 0.75993C1.57579 0.732413 1.61814 0.706207 1.6614 0.681375C1.70372 0.656331 1.74691 0.632579 1.79093 0.610175C2.06309 0.466538 2.36684 0.373439 2.69017 0.343676C4.89222 0.140975 7.10823 0.140975 9.31028 0.343676C9.6331 0.373392 9.93639 0.466241 10.2082 0.609488C10.2522 0.63186 10.2954 0.655579 10.3378 0.68059C10.3824 0.706166 10.4261 0.733202 10.4687 0.761632C11.0203 1.12027 11.3992 1.71613 11.4678 2.39942L11.4743 2.46134C11.4821 2.52955 11.4869 2.5986 11.4888 2.66837L11.6255 7.74996ZM10.2288 2.60055L10.3596 8.32278L10.2536 12.2646C10.2297 13.1508 9.54716 13.8792 8.66443 13.9604C6.89204 14.1236 5.10841 14.1236 3.33602 13.9604C2.4533 13.8791 1.77071 13.1508 1.74688 12.2646L1.64087 8.32326L1.7717 2.60054C1.77198 2.58823 1.77249 2.57597 1.77323 2.56377C1.8228 2.22854 2.01707 1.93917 2.29253 1.76345C2.39688 1.70905 2.51266 1.67297 2.63583 1.65964C4.87223 1.41744 7.12824 1.41744 9.36464 1.65964C9.48776 1.67297 9.6035 1.70902 9.70782 1.76338C9.9834 1.93915 10.1778 2.22866 10.2273 2.56405C10.228 2.57616 10.2285 2.58833 10.2288 2.60055ZM6.00025 17.0833C6.69061 17.0833 7.25025 16.5237 7.25025 15.8333C7.25025 15.143 6.69061 14.5833 6.00025 14.5833C5.3099 14.5833 4.75025 15.143 4.75025 15.8333C4.75025 16.5237 5.3099 17.0833 6.00025 17.0833Z" fill="#B1B1B1"/>
</svg>
