<svg width="18" height="18" viewBox="0 0 18 18" fill="none" xmlns="http://www.w3.org/2000/svg">
<path d="M13.5 6C13.8978 6 14.2794 5.84196 14.5607 5.56066C14.842 5.27936 15 4.89782 15 4.5C15 4.10218 14.842 3.72064 14.5607 3.43934C14.2794 3.15804 13.8978 3 13.5 3C13.1022 3 12.7206 3.15804 12.4393 3.43934C12.158 3.72064 12 4.10218 12 4.5C12 4.89782 12.158 5.27936 12.4393 5.56066C12.7206 5.84196 13.1022 6 13.5 6Z" fill="black"/>
<path d="M8.25 15V14.25H9.75C9.94891 14.25 10.1397 14.171 10.2803 14.0303C10.421 13.8897 10.5 13.6989 10.5 13.5V12H12C13.2599 11.9997 14.4878 11.6027 15.5095 10.8654C16.5311 10.1281 17.2948 9.08795 17.6922 7.89232C18.0895 6.6967 18.1004 5.40632 17.7233 4.20416C17.3462 3.00199 16.6002 1.94904 15.5912 1.1946C14.5821 0.440156 13.3611 0.0225133 12.1014 0.000884588C10.8416 -0.0207442 9.60706 0.354739 8.57268 1.0741C7.5383 1.79345 6.75662 2.82017 6.33846 4.00869C5.92031 5.1972 5.88691 6.48719 6.243 7.69575L0.4395 13.5C0.158176 13.7812 8.49561e-05 14.1627 0 14.5605V16.5C0 16.8978 0.158035 17.2794 0.43934 17.5607C0.720644 17.842 1.10218 18 1.5 18H4.5C4.89782 18 5.27936 17.842 5.56066 17.5607C5.84196 17.2794 6 16.8978 6 16.5V15.75H7.5C7.69891 15.75 7.88968 15.671 8.03033 15.5303C8.17098 15.3897 8.25 15.1989 8.25 15ZM7.5 6C7.5 5.10998 7.76392 4.23995 8.25839 3.49993C8.75285 2.75991 9.45566 2.18314 10.2779 1.84254C11.1002 1.50195 12.005 1.41283 12.8779 1.58647C13.7508 1.7601 14.5526 2.18868 15.182 2.81802C15.8113 3.44736 16.2399 4.24918 16.4135 5.12209C16.5872 5.99501 16.4981 6.89981 16.1575 7.72208C15.8169 8.54434 15.2401 9.24715 14.5001 9.74161C13.76 10.2361 12.89 10.5 12 10.5H9.75C9.55109 10.5 9.36032 10.579 9.21967 10.7197C9.07902 10.8603 9 11.0511 9 11.25V12.75H7.5C7.30109 12.75 7.11032 12.829 6.96967 12.9697C6.82902 13.1103 6.75 13.3011 6.75 13.5V14.25H5.25C5.05109 14.25 4.86032 14.329 4.71967 14.4697C4.57902 14.6103 4.5 14.8011 4.5 15V16.5H1.5V14.5605L7.6335 8.427C7.73621 8.32419 7.80683 8.19375 7.83679 8.05155C7.86675 7.90935 7.85475 7.76151 7.80225 7.626C7.60158 7.10742 7.49908 6.55605 7.5 6V6Z" fill="black"/>
</svg>
