<svg width="24" height="24" viewBox="0 0 24 24" fill="none" xmlns="http://www.w3.org/2000/svg">
<path d="M11.9999 0.23584C5.50582 0.23584 0.235229 5.50643 0.235229 12.0005C0.235229 18.4947 5.50582 23.7653 11.9999 23.7653C18.4941 23.7653 23.7646 18.4947 23.7646 12.0005C23.7646 5.50643 18.4941 0.23584 11.9999 0.23584ZM6.19994 19.3888C6.70582 18.33 9.78817 17.2947 11.9999 17.2947C14.2117 17.2947 17.3058 18.33 17.7999 19.3888C16.1999 20.6594 14.1882 21.4123 11.9999 21.4123C9.8117 21.4123 7.79994 20.6594 6.19994 19.3888ZM19.4823 17.6829C17.7999 15.6358 13.7176 14.9417 11.9999 14.9417C10.2823 14.9417 6.19993 15.6358 4.51758 17.6829C3.31758 16.1064 2.58817 14.1417 2.58817 12.0005C2.58817 6.81231 6.8117 2.58878 11.9999 2.58878C17.1882 2.58878 21.4117 6.81231 21.4117 12.0005C21.4117 14.1417 20.6823 16.1064 19.4823 17.6829ZM11.9999 4.94172C9.71758 4.94172 7.88229 6.77702 7.88229 9.05937C7.88229 11.3417 9.71758 13.177 11.9999 13.177C14.2823 13.177 16.1176 11.3417 16.1176 9.05937C16.1176 6.77702 14.2823 4.94172 11.9999 4.94172ZM11.9999 10.8241C11.0235 10.8241 10.2352 10.0358 10.2352 9.05937C10.2352 8.0829 11.0235 7.29466 11.9999 7.29466C12.9764 7.29466 13.7646 8.0829 13.7646 9.05937C13.7646 10.0358 12.9764 10.8241 11.9999 10.8241Z" fill="#59AB44"/>
</svg>
