<svg width="18" height="17" viewBox="0 0 18 17" fill="none" xmlns="http://www.w3.org/2000/svg">
<path fill-rule="evenodd" clip-rule="evenodd" d="M17 12.5V5.5L11.2857 0.5H5.57142C4.96521 0.5 4.38383 0.710714 3.95518 1.08579C3.52652 1.46086 3.28571 1.96957 3.28571 2.5V12.5C3.28571 13.0304 3.52652 13.5391 3.95518 13.9142C4.38383 14.2893 4.96521 14.5 5.57142 14.5H14.7143C15.3205 14.5 15.9019 14.2893 16.3305 13.9142C16.7592 13.5391 17 13.0304 17 12.5Z" stroke="black" stroke-linecap="round" stroke-linejoin="round"/>
<path d="M10.1429 4.5V8.5H13.5714M3.28571 2.5C2.67951 2.5 2.09812 2.71071 1.66947 3.08579C1.24082 3.46086 1 3.96957 1 4.5V14.5C1 15.0304 1.24082 15.5391 1.66947 15.9142C2.09812 16.2893 2.67951 16.5 3.28571 16.5H12.4286C13.0348 16.5 13.6162 16.2893 14.0448 15.9142C14.4735 15.5391 14.7143 15.0304 14.7143 14.5" stroke="black" stroke-linecap="round" stroke-linejoin="round"/>
</svg>
