<svg width="30" height="37" viewBox="0 0 30 37" fill="none" xmlns="http://www.w3.org/2000/svg">
<path d="M30 22.0355C30 30.4917 22.9688 37.3099 14.4205 36.9891C6.40788 36.688 0.00682334 30.049 3.40685e-05 22.0479C-0.00831643 18.1426 1.51872 14.3898 4.25321 11.5954L4.26308 11.5856C4.3091 11.5387 4.36891 11.5078 4.4338 11.4972C4.4987 11.4867 4.56527 11.497 4.62383 11.5269C4.68239 11.5567 4.72986 11.6044 4.75934 11.663C4.78882 11.7217 4.79876 11.7882 4.78771 11.8528C4.70395 12.356 4.74485 12.8721 4.90683 13.3559L9.43281 26.9025C9.82466 28.0806 10.5761 29.107 11.5819 29.8378C12.5821 30.5639 13.7871 30.9552 15.0241 30.9554C17.5546 30.9554 19.8062 29.3248 20.616 26.9025L25.0636 13.5905C25.2423 13.0538 25.2847 12.4813 25.187 11.9243C25.1743 11.8525 25.1849 11.7785 25.2174 11.7131C25.2498 11.6478 25.3023 11.5945 25.3673 11.5611C25.4322 11.5276 25.5062 11.5158 25.5784 11.5273C25.6505 11.5388 25.7171 11.573 25.7684 11.625L25.7789 11.6361C28.4897 14.4219 30.0041 18.1529 30 22.0355Z" fill="#59AB44"/>
<path d="M21.6004 2.36222L20.1882 7.84858L20.1852 7.85967L19.8241 9.26297L16.8782 19.817C16.364 21.6581 13.7452 21.655 13.2366 19.8121L10.3975 9.45139C10.3073 9.12212 10.3084 8.77459 10.4007 8.4459C10.493 8.1172 10.673 7.81967 10.9215 7.58504L11.0487 7.46558L17.512 1.37147L18.5187 0.48171C19.913 -0.749797 22.0639 0.562373 21.6004 2.36222Z" fill="#59AB44"/>
</svg>
