<svg width="10" height="10" viewBox="0 0 10 10" fill="none" xmlns="http://www.w3.org/2000/svg">
<g clip-path="url(#clip0_174_5311)">
<path d="M4.99587 0.833252C2.69587 0.833252 0.833374 2.69992 0.833374 4.99992C0.833374 7.29992 2.69587 9.16659 4.99587 9.16659C7.30004 9.16659 9.16671 7.29992 9.16671 4.99992C9.16671 2.69992 7.30004 0.833252 4.99587 0.833252ZM5.00004 8.33325C3.15837 8.33325 1.66671 6.84159 1.66671 4.99992C1.66671 3.15825 3.15837 1.66659 5.00004 1.66659C6.84171 1.66659 8.33337 3.15825 8.33337 4.99992C8.33337 6.84159 6.84171 8.33325 5.00004 8.33325Z" fill="black"/>
<path d="M5.20837 2.91675H4.58337V5.41675L6.77087 6.72925L7.08337 6.21675L5.20837 5.10425V2.91675Z" fill="black"/>
</g>
<defs>
<clipPath id="clip0_174_5311">
<rect width="10" height="10" fill="white"/>
</clipPath>
</defs>
</svg>
