<svg width="68" height="82" viewBox="0 0 68 82" fill="none" xmlns="http://www.w3.org/2000/svg">
<path d="M68 48.8355C68 67.5762 52.0625 82.6869 32.6864 81.9759C14.5245 81.3086 0.0154662 66.595 7.72219e-05 48.8628C-0.0188506 40.208 3.44243 31.891 9.6406 25.698L9.66298 25.6762C9.76729 25.5723 9.90287 25.5037 10.05 25.4803C10.197 25.4569 10.3479 25.4799 10.4807 25.546C10.6134 25.6122 10.721 25.7179 10.7878 25.8478C10.8547 25.9778 10.8772 26.1251 10.8521 26.2684C10.6623 27.3837 10.755 28.5273 11.1221 29.5995L21.381 59.6217C22.2692 62.2327 23.9725 64.5074 26.2524 66.1269C28.5193 67.7362 31.2508 68.6033 34.0546 68.6037C39.7905 68.6037 44.8941 64.9902 46.7295 59.6217L56.8108 30.1194C57.2159 28.9301 57.3121 27.6612 57.0906 26.4267C57.0617 26.2676 57.0858 26.1036 57.1593 25.9588C57.2329 25.814 57.3519 25.6959 57.4992 25.6218C57.6464 25.5477 57.8141 25.5215 57.9776 25.547C58.1412 25.5725 58.2922 25.6484 58.4084 25.7635L58.4322 25.7881C64.5767 31.9621 68.0093 40.2308 68 48.8355Z" fill="#59AB44"/>
<path d="M48.961 5.23519L45.76 17.3942L45.753 17.4187L44.9346 20.5287L38.2572 43.9187C37.0918 47.999 31.1559 47.9922 30.0031 43.9078L23.5677 20.9463C23.3633 20.2166 23.3658 19.4464 23.575 18.7179C23.7841 17.9895 24.1921 17.3301 24.7554 16.8101L25.0436 16.5453L39.694 3.03948L41.9757 1.06757C45.1361 -1.66171 50.0116 1.24634 48.961 5.23519Z" fill="#59AB44"/>
</svg>
