<svg width="148" height="181" viewBox="0 0 148 181" fill="none" xmlns="http://www.w3.org/2000/svg">
<path d="M148 107.795C148 149.162 113.313 182.516 71.1409 180.947C31.6122 179.474 0.0336618 146.996 0.000168071 107.856C-0.0410277 88.7517 7.49234 70.3936 20.9825 56.7236L21.0312 56.6754C21.2582 56.4463 21.5533 56.2948 21.8734 56.2431C22.1936 56.1915 22.522 56.2423 22.8109 56.3882C23.0998 56.5341 23.334 56.7675 23.4794 57.0543C23.6248 57.3412 23.6739 57.6664 23.6194 57.9827C23.2062 60.4444 23.4079 62.9687 24.207 65.3355L46.5352 131.604C48.4683 137.367 52.1755 142.388 57.1375 145.963C62.0715 149.515 68.0165 151.429 74.1188 151.43C86.6029 151.43 97.7106 143.454 101.705 131.604L123.647 66.4832C124.529 63.8579 124.738 61.0571 124.256 58.3322C124.193 57.9809 124.246 57.619 124.406 57.2993C124.566 56.9797 124.825 56.719 125.145 56.5555C125.466 56.3919 125.831 56.334 126.187 56.3903C126.543 56.4466 126.871 56.6141 127.124 56.8682L127.176 56.9225C140.549 70.5504 148.02 88.8022 148 107.795Z" fill="#59AB44"/>
<path d="M106.562 11.5557L99.5954 38.3944L99.5802 38.4486L97.7989 45.3134L83.2656 96.9425C80.7292 105.949 67.8098 105.934 65.3008 96.9184L51.2943 46.2352C50.8494 44.6244 50.8549 42.9244 51.3102 41.3164C51.7655 39.7085 52.6535 38.253 53.8794 37.1052L54.5067 36.5208L86.3928 6.7091L91.359 2.35647C98.2374 -3.66793 108.849 2.75107 106.562 11.5557Z" fill="#59AB44"/>
</svg>
