<svg width="20" height="20" viewBox="0 0 20 20" fill="none" xmlns="http://www.w3.org/2000/svg">
<path d="M18.16 4.84024C15.28 0.400244 9.39998 -0.919756 4.83998 1.84024C0.39998 4.60024 -1.04002 10.6002 1.83998 15.0402L2.07998 15.4002L1.11998 19.0002L4.71998 18.0402L5.07998 18.2802C6.63998 19.1202 8.31998 19.6002 9.99998 19.6002C11.8 19.6002 13.6 19.1202 15.16 18.1602C19.6 15.2802 20.92 9.40024 18.16 4.84024ZM15.64 14.0802C15.16 14.8002 14.56 15.2802 13.72 15.4002C13.24 15.4002 12.64 15.6402 10.24 14.6802C8.19998 13.7202 6.51998 12.1602 5.31998 10.3602C4.59998 9.52024 4.23998 8.44024 4.11998 7.36024C4.11998 6.40024 4.47998 5.56024 5.07998 4.96024C5.31998 4.72024 5.55998 4.60024 5.79998 4.60024H6.39998C6.63998 4.60024 6.87998 4.60024 6.99998 5.08024C7.23998 5.68024 7.83998 7.12024 7.83998 7.24024C7.95998 7.36024 7.95998 7.60024 7.83998 7.72024C7.95998 7.96024 7.83998 8.20024 7.71998 8.32024C7.59998 8.44024 7.47998 8.68024 7.35998 8.80024C7.11998 8.92024 6.99998 9.16024 7.11998 9.40024C7.59998 10.1202 8.19998 10.8402 8.79998 11.4402C9.51998 12.0402 10.24 12.5202 11.08 12.8802C11.32 13.0002 11.56 13.0002 11.68 12.7602C11.8 12.5202 12.4 11.9202 12.64 11.6802C12.88 11.4402 13 11.4402 13.24 11.5602L15.16 12.5202C15.4 12.6402 15.64 12.7602 15.76 12.8802C15.88 13.2402 15.88 13.7202 15.64 14.0802Z" fill="#59AB44"/>
</svg>
